<svg width="22" height="24" viewBox="0 0 22 24" fill="none" xmlns="http://www.w3.org/2000/svg">
<path d="M11.3575 16.2501H10.916C10.7057 16.2501 10.5352 16.4206 10.5352 16.631C10.5352 16.8414 10.7057 17.0118 10.916 17.0118H11.3575C11.5678 17.0118 11.7384 16.8414 11.7384 16.631C11.7384 16.4206 11.5678 16.2501 11.3575 16.2501Z" fill="#F86F03"/>
<path d="M21.4819 20.2376L17.8466 14.5775C17.7329 14.4004 17.4973 14.3491 17.3203 14.4628C17.1433 14.5764 17.092 14.8121 17.2057 14.989L20.3441 19.8756L17.3646 19.2265C17.266 19.2049 17.1627 19.2236 17.0778 19.2782C16.9928 19.3328 16.9329 19.4189 16.9115 19.5176L16.2554 22.5297L12.9673 17.6967C12.849 17.5227 12.6121 17.4777 12.4381 17.596C12.2642 17.7144 12.2192 17.9513 12.3375 18.1252L16.1241 23.6908C16.1958 23.7963 16.3144 23.8574 16.4389 23.8574C16.463 23.8574 16.4872 23.8551 16.5114 23.8505C16.6608 23.8215 16.7787 23.7063 16.8111 23.5576L17.5747 20.0519L21.0805 20.8155C21.2309 20.8485 21.3864 20.7872 21.4743 20.6607C21.5621 20.5342 21.5651 20.3672 21.4819 20.2376Z" fill="#F86F03"/>
<path d="M9.87831 17.6376C9.71159 17.5093 9.47246 17.5404 9.34419 17.7072L5.81957 22.2882L5.4255 19.2644C5.39834 19.0558 5.2072 18.9094 4.99864 18.9359L1.97487 19.3299L5.06485 15.314C5.19313 15.1473 5.16195 14.9082 4.99523 14.7798C4.82847 14.6516 4.58934 14.6827 4.46112 14.8495L0.810453 19.5942C0.716508 19.7163 0.705387 19.883 0.782219 20.0164C0.859051 20.15 1.00865 20.2239 1.1615 20.2041L4.71934 19.7404L5.18302 23.2983C5.20293 23.4511 5.31287 23.5767 5.46161 23.6168C5.49441 23.6256 5.52773 23.6299 5.56068 23.6299C5.67707 23.6299 5.7893 23.5764 5.86253 23.4813L9.94788 18.1715C10.0762 18.005 10.045 17.7658 9.87831 17.6376Z" fill="#F86F03"/>
<path d="M2.91697 11.2428C3.09684 11.8327 3.62055 12.2047 4.08266 12.533C4.37749 12.7424 4.65598 12.9402 4.80939 13.1598C4.97407 13.3954 5.06893 13.7361 5.16933 14.0968C5.32588 14.6589 5.48772 15.2403 5.95999 15.5961C6.48446 15.9912 7.92065 15.994 8.55826 15.9738C8.70111 16.1152 8.85599 16.2454 9.01875 16.3609C9.19029 16.4826 9.42804 16.4422 9.54977 16.2707C9.67149 16.0991 9.63112 15.8614 9.45953 15.7397C9.32648 15.6453 9.20004 15.5384 9.0837 15.4221L8.97914 15.3175C8.90342 15.2418 8.79957 15.2013 8.69243 15.2064C7.78913 15.2477 6.66001 15.1698 6.41839 14.9877C6.1523 14.7873 6.03129 14.3526 5.90317 13.8925C5.78997 13.486 5.67297 13.0658 5.43374 12.7235C5.20472 12.3957 4.85854 12.1498 4.52379 11.912C4.12567 11.6292 3.74968 11.3621 3.64558 11.0207C3.54148 10.6792 3.70444 10.2478 3.87699 9.791C4.02208 9.40684 4.17213 9.00957 4.17934 8.60977C4.18681 8.19225 4.04945 7.77818 3.9166 7.37777C3.76619 6.9244 3.62405 6.49621 3.73298 6.18136C3.84388 5.86083 4.22266 5.61053 4.62368 5.34545C4.97372 5.11415 5.33568 4.87492 5.58411 4.54514C5.82913 4.21994 5.95786 3.80973 6.08237 3.41302C6.22735 2.95102 6.36426 2.5147 6.64797 2.3164C6.913 2.13115 7.35835 2.15025 7.83006 2.17031C8.25718 2.18854 8.69888 2.20733 9.10741 2.08281C9.51595 1.95824 9.87197 1.69616 10.2163 1.44266C10.5964 1.16286 10.9558 0.896967 11.2787 0.904279C11.6247 0.910474 11.9818 1.19617 12.36 1.49867C12.6846 1.75842 13.0204 2.027 13.4052 2.16015C13.7953 2.29513 14.2292 2.29152 14.6488 2.28837C15.1292 2.28456 15.5834 2.28096 15.8543 2.48505C16.1204 2.68548 16.2414 3.12017 16.3695 3.5803C16.4827 3.9867 16.5997 4.40697 16.8389 4.74928C17.0679 5.07702 17.4141 5.32296 17.7489 5.56077C18.1469 5.84352 18.523 6.11068 18.6271 6.45208C18.7312 6.79353 18.5682 7.22497 18.3956 7.68175C18.2505 8.06591 18.1005 8.46317 18.0933 8.86297C18.0858 9.28049 18.2232 9.69456 18.356 10.095C18.5064 10.5483 18.6485 10.9765 18.5396 11.2914C18.4287 11.6119 18.0499 11.8622 17.649 12.1272C17.2989 12.3586 16.937 12.5978 16.6885 12.9276C16.4435 13.2528 16.3148 13.663 16.1903 14.0598C16.0453 14.5218 15.9084 14.958 15.6247 15.1563C15.4388 15.2862 14.4375 15.3565 13.4822 15.3068C13.3741 15.3006 13.2685 15.3418 13.1922 15.4187L13.1889 15.422C13.0726 15.5383 12.9461 15.6452 12.8131 15.7396C12.6415 15.8613 12.6011 16.099 12.7228 16.2706C12.7971 16.3753 12.9145 16.4311 13.0338 16.4311C13.11 16.4311 13.1869 16.4083 13.2538 16.3608C13.3768 16.2735 13.4953 16.1779 13.6078 16.075C14.2201 16.0991 15.5871 16.1118 16.061 15.7806C16.5574 15.4338 16.7485 14.8249 16.9171 14.2878C17.0271 13.9373 17.131 13.6062 17.297 13.3859C17.4665 13.1609 17.7592 12.9675 18.069 12.7627C18.5355 12.4545 19.0641 12.105 19.2595 11.5406C19.4529 10.9818 19.2628 10.4091 19.079 9.85518C18.9611 9.49982 18.8497 9.1642 18.8549 8.87673C18.8597 8.60896 18.9805 8.28934 19.1082 7.95104C19.3085 7.42083 19.5355 6.81989 19.3557 6.23001C19.1758 5.64024 18.6521 5.26817 18.19 4.93992C17.8952 4.73044 17.6167 4.5326 17.4632 4.31307C17.2985 4.0774 17.2037 3.73676 17.1033 3.37611C16.9468 2.81391 16.7849 2.23256 16.3126 1.87679C15.8355 1.51736 15.2018 1.52239 14.6427 1.52681C14.2713 1.52965 13.9205 1.53249 13.6543 1.44038C13.3937 1.35024 13.1227 1.1334 12.8358 0.903974C12.3962 0.552263 11.8979 0.153681 11.2924 0.142763C10.7105 0.133318 10.2301 0.486654 9.76467 0.829377C9.45846 1.05479 9.16921 1.26777 8.88524 1.35435C8.60127 1.44094 8.24245 1.42555 7.86251 1.4094C7.28508 1.38482 6.68794 1.35933 6.21161 1.69215C5.71517 2.03904 5.52413 2.64785 5.35559 3.18502C5.2456 3.53551 5.14175 3.86655 4.97575 4.08684C4.80624 4.31185 4.51359 4.50528 4.20372 4.71003C3.73724 5.01832 3.20856 5.36775 3.0132 5.93228C2.81983 6.49108 3.0099 7.06379 3.19368 7.61761C3.31159 7.97298 3.42296 8.30859 3.41778 8.59606C3.413 8.86383 3.29225 9.1834 3.16448 9.52176C2.96415 10.0521 2.73711 10.653 2.91697 11.2428Z" fill="#F86F03"/>
<path d="M14.5246 8.6522C14.5246 6.73059 12.9613 5.16724 11.0397 5.16724C9.11804 5.16724 7.55469 6.73059 7.55469 8.6522C7.55469 10.5739 9.11804 12.1372 11.0397 12.1372C12.9613 12.1372 14.5246 10.5739 14.5246 8.6522ZM11.0396 11.3755C9.538 11.3755 8.31636 10.1538 8.31636 8.6522C8.31636 7.1506 9.538 5.92896 11.0396 5.92896C12.5412 5.92896 13.7628 7.1506 13.7628 8.6522C13.7628 10.1538 12.5413 11.3755 11.0396 11.3755Z" fill="#F86F03"/>
</svg>
