<svg width="44" height="44" viewBox="0 0 44 44" fill="none" xmlns="http://www.w3.org/2000/svg">
<path d="M25.5766 26.6247H24.5156V23.7722C24.5156 23.2746 24.1108 22.8699 23.6133 22.8699H20.3741C19.8765 22.8699 19.4718 23.2746 19.4718 23.7722V26.6247H18.4108C17.9606 26.6247 17.5944 26.9909 17.5944 27.4411V33.3553C17.5944 33.8054 17.9606 34.1717 18.4108 34.1717H25.5766C26.0267 34.1717 26.393 33.8054 26.393 33.3553V27.4411C26.393 26.9909 26.0267 26.6247 25.5766 26.6247ZM20.7608 24.1589H23.2265V26.6247H20.7608V24.1589ZM25.1039 32.8826H18.8834V27.9137H20.1163H23.8711H25.1039V32.8826Z" fill="white"/>
<path d="M21.9937 29.1279C21.6377 29.1279 21.3491 29.4165 21.3491 29.7725V31.0241C21.3491 31.38 21.6377 31.6686 21.9937 31.6686C22.3496 31.6686 22.6382 31.38 22.6382 31.0241V29.7725C22.6382 29.4165 22.3496 29.1279 21.9937 29.1279Z" fill="white"/>
<path d="M34.83 13.0229C34.9853 13.1588 35.1221 13.2858 35.2367 13.4004L35.2618 13.4254C35.3876 13.5512 35.5526 13.6142 35.7175 13.6142C35.8824 13.6142 36.0474 13.5513 36.1732 13.4254C36.4249 13.1737 36.4249 12.7655 36.1732 12.5139L36.1482 12.4889C36.0116 12.3523 35.858 12.2096 35.6788 12.0528C35.4109 11.8184 35.0038 11.8455 34.7693 12.1134C34.5349 12.3814 34.5621 12.7886 34.83 13.0229Z" fill="white"/>
<path d="M40.1033 21.0499C39.7309 20.6775 39.3151 20.3506 38.863 20.0746C38.8936 19.7654 38.9091 19.4505 38.9091 19.1338C38.9091 17.5981 38.5429 16.1261 37.8207 14.7588C37.6544 14.444 37.2644 14.3237 36.9497 14.4899C36.6349 14.6562 36.5146 15.0461 36.6808 15.3609C37.304 16.5407 37.62 17.8101 37.62 19.1338C37.62 19.5401 37.5908 19.9418 37.5332 20.3279C37.4927 20.5995 37.6287 20.867 37.8722 20.9943C38.3623 21.2504 38.8063 21.5759 39.1918 21.9614C40.196 22.9657 40.749 24.295 40.749 25.7048C40.749 27.1146 40.196 28.444 39.1918 29.4482C38.1876 30.4524 36.8582 31.0054 35.4485 31.0054H29.9261C30.0715 30.2696 30.1478 29.512 30.1478 28.7405V22.8886C30.1478 22.6444 30.0099 22.4212 29.7915 22.3121L22.2819 18.5573C22.1005 18.4666 21.8868 18.4666 21.7054 18.5573L14.1959 22.3121C13.9775 22.4212 13.8396 22.6444 13.8396 22.8886V28.7404C13.8396 29.512 13.9159 30.2695 14.0613 31.0053H10.1034C6.31806 31.0053 3.2384 27.9256 3.2384 24.1403C3.2384 22.3168 3.95409 20.5935 5.25243 19.2892C5.73764 18.804 6.30242 18.3898 6.93114 18.0579C7.20794 17.9119 7.33977 17.5881 7.24378 17.2903C7.07749 16.7743 6.99318 16.2365 6.99318 15.6918C6.99318 14.282 7.54619 12.9526 8.55037 11.9485C9.42161 11.0772 10.5732 10.5321 11.793 10.4133C12.016 10.3915 12.2117 10.2557 12.3099 10.0542C12.7685 9.11366 13.3797 8.25815 14.1263 7.51153C15.9013 5.73657 18.2508 4.75903 20.7421 4.75903C23.2334 4.75903 25.5829 5.73657 27.3579 7.51153C28.2546 8.40837 28.9525 9.45913 29.4321 10.6348C29.5256 10.8638 29.7419 11.0191 29.9888 11.0345C31.0009 11.0978 31.9695 11.3412 32.8678 11.7581C33.1907 11.9079 33.574 11.7677 33.7238 11.4448C33.8736 11.1219 33.7333 10.7387 33.4105 10.5889C32.4852 10.1594 31.4972 9.88847 30.4683 9.78122C29.9324 8.59331 29.1939 7.52459 28.2693 6.59999C26.2509 4.58157 23.5777 3.46997 20.7421 3.46997C17.9065 3.46997 15.2332 4.58157 13.2148 6.59999C12.4508 7.36406 11.8114 8.22902 11.3109 9.17502C9.92812 9.38728 8.63545 10.0404 7.63892 11.0369C6.39128 12.2846 5.70412 13.9377 5.70412 15.6918C5.70412 16.1934 5.76153 16.6905 5.87514 17.1755C5.31182 17.5183 4.79722 17.9213 4.33986 18.3787C2.79832 19.9273 1.94934 21.9735 1.94934 24.1402C1.94934 28.6363 5.60727 32.2943 10.1034 32.2943H14.3944C15.5038 35.7579 18.2024 38.575 21.7899 39.7708C21.8561 39.7928 21.9249 39.8039 21.9937 39.8039C22.0626 39.8039 22.1314 39.7929 22.1976 39.7708C25.7851 38.575 28.4837 35.7579 29.5931 32.2943H35.4485C37.2026 32.2943 38.8557 31.6071 40.1034 30.3595C41.3512 29.1118 42.0382 27.4587 42.0382 25.7046C42.038 23.9507 41.3509 22.2975 40.1033 21.0499ZM21.9937 38.4777C18.7829 37.3334 16.4034 34.7162 15.5125 31.5385C15.5062 31.5027 15.497 31.4679 15.4851 31.4344C15.2526 30.5705 15.1285 29.6668 15.1285 28.7404V23.287L21.9936 19.8545L28.8587 23.287V28.7404C28.8587 29.6667 28.7347 30.5703 28.5022 31.4339C28.4902 31.4677 28.4809 31.5027 28.4745 31.5389C27.5837 34.7164 25.2044 37.3335 21.9937 38.4777Z" fill="white"/>
</svg>
