<svg width="24" height="24" viewBox="0 0 24 24" fill="none" xmlns="http://www.w3.org/2000/svg">
<path d="M12.2455 11.7154L6.52761 7.42032C6.35937 7.29402 6.1206 7.328 5.99431 7.49608C5.86801 7.66427 5.90194 7.90304 6.07007 8.02939L11.788 12.3245C11.8566 12.376 11.9369 12.4008 12.0165 12.4008C12.1321 12.4008 12.2464 12.3483 12.3213 12.2488C12.4476 12.0806 12.4137 11.8418 12.2455 11.7154Z" fill="#F86F03"/>
<path d="M10.4003 23.0118C4.98893 22.2232 0.908203 17.4978 0.908203 12.0201C0.908203 9.73079 1.59893 7.53267 2.90558 5.66341C3.02614 5.49101 2.98409 5.25361 2.81164 5.1331C2.63918 5.01255 2.40183 5.0546 2.28133 5.22705C0.884691 7.22489 0.146484 9.57392 0.146484 12.0201C0.146484 14.8889 1.18364 17.6582 3.06686 19.8179C4.93175 21.9565 7.49712 23.3585 10.2905 23.7656C10.3091 23.7682 10.3276 23.7696 10.3459 23.7696C10.5319 23.7696 10.6947 23.6331 10.7223 23.4436C10.7526 23.2354 10.6085 23.0421 10.4003 23.0118Z" fill="#F86F03"/>
<path d="M20.41 3.62666C18.168 1.38472 15.1872 0.150024 12.0166 0.150024C11.8062 0.150024 11.6357 0.320497 11.6357 0.530884V7.72496C11.6357 7.93535 11.8062 8.10582 12.0166 8.10582C12.227 8.10582 12.3975 7.93535 12.3975 7.72496V0.918954C18.3469 1.1205 23.1249 6.02242 23.1249 12.02C23.1249 17.4978 19.0443 22.2232 13.6329 23.0117C13.4247 23.0421 13.2805 23.2353 13.3109 23.4435C13.3385 23.633 13.5012 23.7695 13.6873 23.7695C13.7055 23.7695 13.7241 23.7682 13.7427 23.7655C16.536 23.3584 19.1014 21.9565 20.9663 19.8179C22.8495 17.6582 23.8867 14.8889 23.8867 12.02C23.8867 8.84946 22.652 5.86865 20.41 3.62666Z" fill="#F86F03"/>
</svg>
