<svg width="67" height="68" viewBox="0 0 67 68" fill="none" xmlns="http://www.w3.org/2000/svg">
<path d="M56.7412 13.2504H10.2674C6.23187 13.2504 2.94861 16.5335 2.94861 20.5692V50.1434C2.94861 54.179 6.23187 57.4621 10.2674 57.4621H47.1572C47.6994 57.4621 48.1387 57.0227 48.1387 56.4807C48.1387 55.9387 47.6994 55.4992 47.1572 55.4992H10.2674C7.31421 55.4992 4.9115 53.0967 4.9115 50.1434V20.5692C4.9115 18.7626 5.81155 17.1632 7.18583 16.1926C7.14291 16.4678 7.21633 16.7594 7.41288 16.9865L21.692 33.4832L11.5847 47.4557C11.2669 47.8949 11.3655 48.5085 11.8048 48.8262C11.9786 48.952 12.1798 49.0125 12.3793 49.0125C12.6834 49.0125 12.9833 48.8715 13.1753 48.6063L23.0118 35.0082L27.5262 40.2238C27.5723 40.2769 27.6237 40.3248 27.68 40.3669C29.2458 41.5397 31.1224 42.1261 32.9989 42.1261C34.8754 42.1261 36.7519 41.5397 38.3178 40.3669C38.3677 40.3296 38.4137 40.2876 38.4557 40.2416L43.4014 34.8013L53.2587 48.6016C53.4503 48.8698 53.7519 49.0127 54.0581 49.0127C54.2554 49.0127 54.4547 48.9533 54.6277 48.8299C55.0687 48.5148 55.1709 47.9018 54.8558 47.4608L44.7522 33.3156L59.5801 17.0047C59.7879 16.7761 59.8672 16.4763 59.8231 16.1931C61.1973 17.1637 62.0972 18.7629 62.0972 20.5696V50.1438C62.0972 53.097 59.6946 55.4996 56.7414 55.4996H55.9143C55.3722 55.4996 54.9329 55.9391 54.9329 56.4811C54.9329 57.0231 55.3722 57.4625 55.9143 57.4625H56.7414C60.7769 57.4625 64.0601 54.1794 64.0601 50.1438V20.5696C64.0599 16.5336 60.7768 13.2504 56.7412 13.2504ZM58.1274 15.6841L37.0681 38.8493C34.6625 40.6021 31.3475 40.6046 28.9389 38.8563L8.89708 15.702C8.81451 15.6066 8.71715 15.5319 8.61181 15.4764C9.13355 15.3064 9.6897 15.2133 10.2674 15.2133H56.7414C57.3192 15.2133 57.8754 15.3064 58.3973 15.4764C58.2986 15.5284 58.2067 15.5969 58.1274 15.6841Z" fill="white"/>
<path d="M52.0099 55.4993H51.032C50.4898 55.4993 50.0505 55.9387 50.0505 56.4807C50.0505 57.0227 50.4898 57.4622 51.032 57.4622H52.0099C52.552 57.4622 52.9913 57.0227 52.9913 56.4807C52.9913 55.9387 52.552 55.4993 52.0099 55.4993Z" fill="white"/>
</svg>
