<svg width="112" height="113" viewBox="0 0 112 113" fill="none" xmlns="http://www.w3.org/2000/svg">
<rect width="112" height="112" rx="25" transform="matrix(1 0 0 -1 0 112.545)" fill="url(#paint0_linear_191_782)"/>
<g clip-path="url(#clip0_191_782)">
<path d="M21.2743 98.5454C19.222 97.912 17.2391 96.7439 16.111 94.8219C14.87 92.7092 14.3016 87.9709 16.3995 86.3206C16.6338 86.1365 17.571 85.5864 17.7836 85.5864H21.1138L21.1073 20.042C21.4717 17.1227 23.9515 14.7317 26.8694 14.5454L81.0697 14.598C88.1552 15.9217 86.1202 23.2483 86.4001 28.5871C86.2178 29.9919 84.1482 30.0489 83.9507 28.2539C83.5646 24.7232 85.6321 17.6378 80.6076 17.0307L27.0365 17.0154C25.6914 16.9693 23.5436 18.6941 23.5436 20.0485V85.5864H71.2072C71.4415 85.5864 72.5891 86.1935 72.8299 86.4083C75.2619 88.5539 72.7085 92.1678 75.8499 94.8416C78.8221 97.3729 83.545 95.5714 83.9572 91.7405C84.1416 90.0135 83.5949 86.6844 84.0288 85.2511C84.4063 84.0019 86.2309 84.0282 86.4001 85.3344C86.5845 86.7677 86.5259 90.4102 86.3979 91.9114C86.1744 94.5348 84.1503 97.1033 81.74 98.0326L80.2214 98.5498H21.2743V98.5454ZM73.5654 96.0842C72.5891 94.846 71.7712 93.3469 71.6172 91.7361C71.5283 90.7959 71.9752 88.5933 70.9642 88.1309L18.4431 88.0564C16.9918 88.2514 17.4756 91.7602 17.8335 92.753C18.3759 94.2499 20.3783 96.0864 22.0054 96.0864H73.5654V96.0842Z" fill="white"/>
<path d="M94.8935 47.6322C95.104 47.8799 95.6767 48.1473 95.9153 48.4037C97.2431 49.8195 97.3624 52.1908 96.2017 53.7446C95.5097 54.6717 94.1884 55.0465 94.3794 56.4228C94.4488 56.9225 94.8697 57.4572 94.9586 57.981C95.2732 59.8417 94.3707 61.8448 92.6242 62.5987C91.8302 62.9428 90.6847 62.853 90.1163 63.3461C89.4546 63.9203 89.6238 64.8517 89.3982 65.5728C88.9687 66.9447 87.8036 68.0537 86.413 68.3802C86.131 71.8912 86.7124 75.812 86.3978 79.2747C86.2742 80.6357 85.1829 81.2274 83.9072 80.9535L78.0279 77.5543L72.1053 80.9096C70.8296 81.3436 69.6234 80.3858 69.5019 79.1016L69.4802 68.4613C68.1958 67.8192 67.0786 67.0609 66.623 65.6056C66.2802 64.5098 66.5752 63.3483 65.1586 62.9845C64.8006 62.8924 64.4188 62.9538 64.0087 62.8332C62.271 62.3204 60.9302 60.6438 60.9563 58.7875C60.9715 57.6654 61.8219 56.574 61.5095 55.5133C61.3706 55.0443 60.3445 54.4679 60.0104 54.0756C58.6154 52.4428 58.6089 50.0014 60.0755 48.419C60.5224 47.9369 61.3446 47.641 61.5095 46.9156C61.7568 45.8307 60.9411 44.8599 60.9584 43.6961C60.9801 42.1445 61.9738 40.5665 63.3839 39.9485C64.2344 39.5737 65.087 39.7797 65.7769 39.2471C66.5666 38.6379 66.3605 37.8423 66.6273 36.9876C67.1523 35.3066 68.7925 34.0574 70.5606 34.0574C71.6518 34.0574 72.7127 34.8946 73.6087 34.6974C74.3073 34.544 74.7368 33.5577 75.2727 33.0909C76.9193 31.6554 79.3817 31.7233 80.9351 33.2684C81.2106 33.5424 81.4102 34.0596 81.6965 34.3029C82.8659 35.2979 83.6296 34.2831 84.7273 34.11C86.5085 33.8273 88.5369 34.8026 89.2355 36.5317C89.5436 37.2966 89.4655 38.5151 89.9601 39.0806C90.5068 39.7008 92.0168 39.6329 92.8737 40.0756C94.4835 40.9062 95.2645 42.8414 94.9629 44.6144C94.7655 45.7759 93.7784 46.326 94.8957 47.6322H94.8935ZM86.6625 65.5158C87.168 64.9942 87.1354 63.8041 87.4045 63.0656C87.6973 62.259 88.5781 61.3035 89.3331 60.9134C90.535 60.291 92.6264 60.7753 92.5743 58.7722C92.5375 57.4134 91.5482 57.0211 92.0884 55.0026C92.5375 53.3217 94.2904 52.6795 94.4791 51.8423C94.8675 50.1197 93.6179 50.0321 92.8238 48.991C92.1296 48.0793 91.8085 47.0011 91.9582 45.8483C92.1079 44.6955 93.0495 43.9218 92.2142 42.7143C91.6154 41.8486 89.8061 42.1817 88.5825 41.1341C87.0422 39.8192 87.539 38.9951 86.964 37.518C86.2503 35.6858 84.391 37.0972 83.2239 37.1914C82.0567 37.2857 80.9936 36.9481 80.1432 36.2052C79.2928 35.4622 79.1626 34.384 77.7177 34.5768C76.7132 34.7105 76.7089 35.4009 76.16 35.9619C75.1946 36.9481 73.7367 37.3733 72.3851 37.1542C71.359 36.9876 70.8231 36.1416 69.6798 36.7991C68.7187 37.3514 68.9552 38.4669 68.6558 39.3721C68.3238 40.3758 67.4387 41.3577 66.4668 41.7543C65.4254 42.1773 63.731 41.9034 63.5054 43.3564C63.3449 44.3909 64.1237 45.3683 64.1129 46.4641C64.1042 47.2399 63.5965 48.5702 63.0824 49.1598C62.4467 49.8918 61.2405 50.1526 61.4162 51.5048C61.5529 52.559 63.462 53.3063 63.9415 55.0355C64.4209 56.7647 63.052 58.6166 63.679 59.7321C64.1714 60.6066 66.3236 60.4773 67.4799 61.4701C69.0745 62.8354 68.5712 65.027 69.6082 65.7174C70.7667 66.4867 71.3177 65.5728 72.3613 65.4259C73.6391 65.2462 74.8214 65.5026 75.8237 66.3289C76.505 66.8899 76.813 67.8696 77.7481 68.0054C79.1235 68.2049 79.475 66.8483 80.3992 66.1645C81.3972 65.4237 82.4776 65.255 83.7011 65.4259C84.7533 65.5749 85.5864 66.6313 86.6647 65.5202L86.6625 65.5158ZM71.9404 68.2772V78.0386C73.5414 77.7099 76.4507 74.9507 77.8674 74.9068C79.5075 74.8564 82.2823 77.5302 83.9593 78.0386V68.2772C83.9593 68.1304 83.4039 67.9068 83.2174 67.8761C81.4839 67.6022 81.4427 69.0377 80.2777 69.8069C78.9023 70.7165 77.1602 70.7165 75.7847 69.8069C74.6414 69.0486 74.5004 67.703 72.8537 67.8783C72.6346 67.9024 72.0055 68.0778 71.9425 68.275L71.9404 68.2772Z" fill="white"/>
<path d="M30.0002 34.6054L55.2986 34.5615C56.9713 34.7632 57.2555 36.9854 54.8126 37.1958C47.0307 37.8643 38.3267 36.6852 30.4472 37.1893C28.7983 37.1761 28.2061 34.9275 29.9981 34.6032L30.0002 34.6054Z" fill="white"/>
<path d="M29.8346 54.286L55.3 54.2466C56.8317 54.3321 57.0486 56.55 55.4628 56.7143L29.9561 56.7187C28.6523 56.5478 28.5416 54.6192 29.8368 54.2838L29.8346 54.286Z" fill="white"/>
<path d="M30.0002 44.4476L55.2986 44.4038C56.8303 44.4893 57.0472 46.7072 55.4613 46.8716L29.9547 46.8759C28.6725 46.7072 28.436 44.7282 30.0024 44.4454L30.0002 44.4476Z" fill="white"/>
<path d="M56.3023 66.1799C56.235 66.2654 55.8532 66.4867 55.7426 66.5108L30.121 66.5591C28.5199 66.3881 28.47 64.2842 30.121 64.0913H55.3C56.3283 64.0913 56.9466 65.3734 56.3023 66.1799Z" fill="white"/>
<path d="M76.4551 39.5362C90.2161 38.0459 94.772 56.806 82.7184 62.1032C73.3614 66.2146 63.8395 57.3671 66.8616 47.5618C68.1264 43.4591 72.1985 39.9964 76.4551 39.5362ZM76.7762 41.993C65.2714 43.3123 66.6447 61.4369 78.6766 60.6457C90.7086 59.8546 89.5718 40.5246 76.7762 41.993Z" fill="white"/>
</g>
<defs>
<linearGradient id="paint0_linear_191_782" x1="56" y1="0" x2="56" y2="112" gradientUnits="userSpaceOnUse">
<stop stop-color="#F26322"/>
<stop offset="1" stop-color="#0663BF"/>
</linearGradient>
<clipPath id="clip0_191_782">
<rect width="82" height="84" fill="white" transform="translate(15 14.5454)"/>
</clipPath>
</defs>
</svg>
