<svg width="112" height="113" viewBox="0 0 112 113" fill="none" xmlns="http://www.w3.org/2000/svg">
<rect width="112" height="112" rx="25" transform="matrix(1 0 0 -1 0 112.545)" fill="url(#paint0_linear_191_781)"/>
<g clip-path="url(#clip0_191_781)">
<path d="M14 93.7943C14.4638 92.7039 15.0064 91.9551 15.934 91.2238C16.085 85.185 15.2733 79.4899 17.9008 73.8518C18.3471 72.8928 20.0317 70.6463 20.1827 70.0727C20.4802 68.9473 20.0974 66.7139 20.2418 65.3805C20.4737 63.2413 22.0576 61.5663 24.2345 61.3473C27.9471 60.9729 32.2439 61.6254 36.0201 61.3407C37.1402 61.1262 38.0897 58.3564 37.6587 57.4127C37.5668 57.2134 35.6109 55.6173 35.204 55.118C33.8038 53.408 32.874 51.1068 32.6465 48.9107C28.9929 48.326 28.4788 45.2848 28.7325 42.0814C28.8419 40.7042 29.5814 39.9423 29.7127 39.1277C30.3581 35.1143 28.6975 31.8759 31.0035 27.799C35.4381 19.9626 45.5654 23.4155 52.8944 22.6645C54.2509 22.8769 55.5176 23.8337 56.0033 25.1256C56.1521 25.5197 56.3227 26.8006 56.4496 26.8925C56.6071 27.0064 57.5413 27.0567 57.887 27.1728C59.5847 27.7486 60.5429 29.3689 60.6786 31.0986C60.9324 34.3304 60.7005 37.8819 60.6786 41.0961C60.6611 43.6908 61.3918 47.3364 58.4974 48.5997C58.272 48.6983 57.7929 48.7005 57.7448 48.7464C57.6354 48.8515 57.2372 51.1352 57.0272 51.7155C56.4211 53.4014 55.2857 55.1334 53.9599 56.3486C53.5639 56.712 51.7677 57.8156 51.6955 57.9338C51.3652 58.4921 52.4241 61.0627 53.2532 61.3101L65.4589 61.3867C67.592 61.8049 68.9878 63.3508 69.1825 65.5272C69.2984 66.819 68.9397 68.9582 69.2241 70.0727C69.3072 70.3967 70.5455 71.9973 70.8496 72.5425C74.1947 78.5419 73.3612 84.6047 73.4727 91.2238C76.4788 93.3257 75.8771 97.5647 72.2957 98.5478H16.9469C15.4943 97.9063 14.7001 96.9954 14 95.5985V93.7965V93.7943ZM34.7971 40.1984V35.6923C34.7971 34.2319 36.6086 32.4496 38.0284 32.2066C41.2489 31.657 41.8527 33.6517 43.8873 35.2785C45.4822 36.5528 47.7138 37.5972 49.7747 37.7461C51.4308 37.8666 53.6164 36.9732 54.9313 37.8293C55.7736 38.3789 55.918 39.5985 57.0031 39.7036C58.0882 39.8087 58.1626 39.0095 58.2217 38.1556C58.3464 36.3273 58.3792 33.2269 58.2217 31.4227C57.9789 28.6573 55.9902 30.0608 54.6075 28.4843C53.4873 27.2056 54.2815 25.2985 52.2447 25.1124C47.2346 25.7627 38.9386 23.5535 34.8824 26.9276C31.1479 30.0323 32.3358 34.8143 32.2089 39.1015C32.338 39.6007 34.633 40.3626 34.7971 40.1984ZM31.196 41.8384V44.7067C31.196 45.0176 31.6729 45.8628 31.9573 46.0752C32.7537 46.6729 33.4625 46.2504 34.1911 46.4605C35.1756 46.7452 35.0115 48.5428 35.1996 49.3858C37.569 60.0861 53.2445 59.784 55.2266 48.926C55.3885 48.0348 55.0035 46.7189 56.2417 46.3357C56.7362 46.1825 58.2151 46.4343 58.2151 45.5256V42.0026C56.2899 42.561 54.4149 41.591 53.5223 39.8612C48.9192 41.0414 44.979 39.4474 41.507 36.5156C40.5575 35.7142 39.4417 33.7655 37.9103 34.8778C36.2892 36.0536 38.3129 40.6976 36.4357 42.2522C34.6418 43.7389 33.0775 41.9347 31.1916 41.8384H31.196ZM39.3827 61.3407H50.0263C49.7003 60.6773 49.3896 59.9635 49.3677 59.2125C47.4644 59.5475 45.6747 59.8606 43.7145 59.7073C42.4237 59.6066 41.2817 59.0395 40.0368 58.8819C40.1112 59.7533 39.7568 60.5788 39.3805 61.3407H39.3827ZM66.7322 90.8428V65.5206C66.7322 64.8024 65.5223 63.6179 64.691 63.793L24.1491 63.8763C23.1231 64.2419 22.784 64.982 22.6811 66.0133L22.6439 81.0555C22.342 82.3736 20.2221 81.8481 20.2221 80.7621V74.9444L19.0888 77.8259C17.984 82.0517 18.5659 86.5097 18.4215 90.845H20.2242V86.1725C20.2242 85.7214 21.0009 85.1368 21.4647 85.1083C21.8082 85.0886 22.6789 85.6229 22.6789 85.844V90.5975C22.6789 90.6151 22.9065 90.8428 22.924 90.8428H66.73H66.7322ZM69.1891 74.9444V90.8428H70.9918C70.8343 86.4637 71.4622 81.9707 70.2895 77.6945L69.1891 74.9444ZM17.5552 93.3367C16.2119 93.8206 16.1287 95.408 17.4304 96.0145L71.5672 96.0911C73.1643 95.8328 73.4684 94.0767 71.9807 93.3739L17.5552 93.3345V93.3367Z" fill="white"/>
<path d="M67.55 36.756C71.8337 36.7714 76.1348 37.2399 80.1604 38.7223V19.4651C76.3974 17.3347 71.7833 17.1793 67.55 17.0895V21.924C67.55 22.7845 65.3097 23.4983 65.0909 21.6C64.9859 20.6957 64.9618 17.3719 65.1325 16.553C65.6313 14.1511 69.0224 14.5299 70.906 14.6328C74.4984 14.8277 78.187 15.6356 81.4162 17.2165C84.7657 15.6531 88.4871 14.8014 92.191 14.624C94.4204 14.5168 97.4526 14.1248 97.8486 17.0063C97.492 23.3604 98.3212 30.2224 97.8552 36.5174C97.5839 40.1849 94.0681 39.1996 91.5456 39.3791C90.3533 39.4645 88.8415 39.6879 87.6623 39.9178C85.0763 40.4235 82.9717 41.8533 80.2873 41.4658C79.3662 41.3322 78.3204 40.7169 77.3775 40.4433C75.4654 39.8893 73.2229 39.5193 71.2364 39.3791C69.2499 39.239 65.5088 40.071 65.1106 37.1502C64.6993 34.1154 65.395 30.2815 65.0865 27.1592C65.2003 26.3053 66.0907 25.8433 66.8936 26.1893C66.9724 26.2243 67.5522 26.7936 67.5522 26.8418V36.7582L67.55 36.756ZM95.3895 17.0895C91.0446 17.0501 86.5553 17.4595 82.6151 19.3841V38.7245C83.8402 38.4924 85.0063 37.9756 86.2468 37.6888C89.2441 36.9969 92.3245 36.8962 95.3874 36.7582V17.0895H95.3895Z" fill="white"/>
<path d="M69.9591 30.5644C70.7905 30.3761 73.3458 30.7374 74.3216 30.8797C75.5073 31.0527 78.8568 31.276 78.4937 33.0298C78.1239 34.8121 75.0676 33.5115 73.8315 33.3364C72.7682 33.1853 69.8322 33.2685 69.2722 32.4912C68.7536 31.7709 69.0993 30.7571 69.9569 30.5644H69.9591Z" fill="white"/>
<path d="M69.3987 25.493C69.6131 25.2762 70.252 25.1054 70.5714 25.112C71.9541 25.1427 76.7803 25.7273 77.8545 26.3622C79.0556 27.0717 78.5437 28.6372 77.2857 28.7182C76.66 28.7598 74.4175 28.0548 73.5074 27.9256C72.4791 27.7811 70.1776 27.9146 69.5059 27.341C68.9502 26.8658 68.878 26.0163 69.3987 25.493Z" fill="white"/>
<path d="M69.4056 22.4475C68.7252 21.7009 69.0709 20.4922 70.0816 20.3608C71.5715 20.166 76.0368 20.7856 77.4654 21.3461C79.0865 21.9833 78.6993 23.7612 77.2925 23.8225C76.4481 23.8598 74.1049 23.1657 73.0176 23.0124C72.1513 22.8898 69.9132 23.0058 69.4056 22.4497V22.4475Z" fill="white"/>
<path d="M43.6004 72.0367C52.695 70.7909 53.6401 84.2938 45.0268 84.7777C36.9867 85.231 36.0547 73.0702 43.6004 72.0367ZM43.9264 74.4934C38.9098 75.3495 40.474 83.6063 45.81 82.113C50.3081 80.854 49.0261 73.6241 43.9264 74.4934Z" fill="white"/>
<path d="M92.4081 25.1624C93.4692 25.1712 94.0949 26.0558 93.6311 27.0476C93.2264 27.9147 90.2685 27.7833 89.273 27.93C88.2776 28.0767 86.4924 28.6657 85.6173 28.6701C84.3243 28.6789 83.8561 26.8725 85.1906 26.301C86.6564 25.6726 90.7782 25.1471 92.4081 25.1624Z" fill="white"/>
<path d="M90.9354 20.4156C91.6114 20.3718 93.0422 20.1638 93.5016 20.7002C93.9086 21.1732 93.8298 21.968 93.4294 22.419C92.9131 23.0037 90.5415 22.8789 89.5986 23.0102C88.2663 23.1963 86.9492 23.5029 85.6431 23.8138C84.2276 23.643 83.8535 22.0753 85.2362 21.4316C86.3891 20.8929 89.5899 20.5054 90.9375 20.4178L90.9354 20.4156Z" fill="white"/>
<path d="M88.6405 30.8993C90.0866 30.8687 90.5089 32.6028 89.3187 33.2203C88.8112 33.483 85.5754 34.0654 85.0635 33.899C84.2124 33.6188 84.2059 32.2437 84.9191 31.7686C85.3435 31.4839 88.0695 30.9125 88.6405 30.9015V30.8993Z" fill="white"/>
</g>
<defs>
<linearGradient id="paint0_linear_191_781" x1="56" y1="0" x2="56" y2="112" gradientUnits="userSpaceOnUse">
<stop stop-color="#F26322"/>
<stop offset="1" stop-color="#0663BF"/>
</linearGradient>
<clipPath id="clip0_191_781">
<rect width="84" height="84" fill="white" transform="translate(14 14.5454)"/>
</clipPath>
</defs>
</svg>
