<svg width="113" height="113" viewBox="0 0 113 113" fill="none" xmlns="http://www.w3.org/2000/svg">
<rect width="112" height="112" rx="25" transform="matrix(1 0 0 -1 0.314453 112.545)" fill="url(#paint0_linear_191_780)"/>
<g clip-path="url(#clip0_191_780)">
<path d="M21.9621 98.6553C21.668 99.7032 19.7625 99.8578 19.3531 98.616L19.2947 86.909C16.6333 86.6853 14.6346 85.0212 14.0348 82.3773C14.4928 76.2684 13.3564 69.0736 14.0386 63.0924C14.4249 59.7054 17.465 57.3646 20.7255 57.2295C27.1102 57.5636 33.8865 56.8116 40.2234 57.2279C43.7063 57.4566 46.7514 59.5447 47.1163 63.2649C47.3146 65.2862 46.2552 70.1412 49.114 70.6192C51.6904 71.0498 54.8167 70.1393 57.4832 70.9536C62.9338 72.6184 63.1344 80.4905 57.763 82.4479C57.5252 82.5345 56.4279 82.8725 56.2915 82.8725H45.7941V98.6556C45.7941 98.7096 45.1327 99.3706 45.0345 99.4166C44.2009 99.8054 43.4432 99.2664 43.1501 98.4601C43.5105 93.3703 42.6571 87.5808 43.1365 82.576C43.2786 81.0943 44.2837 80.209 45.7208 80.0247C48.9346 79.6126 52.8607 80.3378 56.1117 80.0126C59.9282 79.6305 59.8075 74.0439 56.4686 73.511C52.6882 72.9072 47.5998 75.0263 45.1952 70.7565C43.9021 68.4608 44.7117 66.2964 44.4682 63.8397C44.2796 61.9385 42.8993 60.2712 40.9789 60.099C34.3527 59.5051 26.8758 60.5651 20.1582 60.0993C18.2549 60.276 16.8551 61.9602 16.6687 63.8393C16.1242 69.3256 17.0771 75.6745 16.6589 81.254C16.7382 82.5511 17.4745 83.8587 18.8367 84.0254C23.9876 83.6274 29.866 84.5363 34.9281 84.0296C38.7714 83.6449 38.6675 77.9536 35.112 77.5114C31.9377 77.1166 27.8767 77.943 24.7223 77.498C22.752 77.2201 22.7302 74.8911 24.8941 74.6461C27.0078 74.4068 34.0826 74.4078 35.9976 74.8937C41.2183 76.2188 42.1738 83.4772 37.4787 86.0352C36.9967 86.2978 35.5769 86.8895 35.1079 86.8895H21.9624V98.655L21.9621 98.6553Z" fill="white"/>
<path d="M51.0892 39.2551C49.1343 39.3292 47.3346 37.6676 47.1173 35.7153C46.4834 30.0217 47.5927 23.1665 47.1173 17.3486C47.3245 15.4864 48.9594 13.913 50.7986 13.8022C59.9485 14.436 70.1603 12.9853 79.1852 13.8022C81.1852 13.9833 82.6962 15.5318 82.8734 17.5326C83.3854 23.3115 82.4748 29.854 82.8664 35.7153C82.6889 37.3108 81.477 38.6608 79.9938 39.1228C74.0892 39.4512 68.1202 39.1177 62.1936 39.2931L56.1036 45.3774C51.4925 47.545 50.6122 42.8782 51.0892 39.2551ZM50.8466 16.5292C50.2168 16.7026 49.7787 17.2563 49.7616 17.9189L49.7768 35.3208C50.1173 37.519 52.9915 35.7712 53.6387 37.3449C54.0487 38.3417 53.3914 42.7967 53.9164 43.189C54.1065 43.3312 54.3086 43.274 54.5026 43.1913L61.2473 36.6146L78.803 36.5795C79.8204 36.459 80.1381 35.9377 80.2265 34.9582C80.7082 29.6083 79.8409 23.5336 80.2265 18.1048C80.2704 17.1422 79.5768 16.4349 78.6189 16.4787L50.8463 16.5285L50.8466 16.5292Z" fill="white"/>
<path d="M30.9984 32.6109C40.6613 31.4892 47.4256 42.1637 41.8991 50.3323C36.1478 58.8328 23.1583 55.9211 21.4173 45.8306C20.3621 39.714 24.8327 33.3265 30.9984 32.6109ZM31.5666 35.2897C19.6426 36.6883 22.9859 55.5023 34.782 52.3162C44.9351 49.5742 41.961 34.0702 31.5666 35.2897Z" fill="white"/>
<path d="M79.419 58.0549C94.7003 56.292 96.5906 79.2745 82.1808 80.7444C67.1276 82.2801 65.1838 59.697 79.419 58.0549ZM79.9897 60.7372C69.0486 61.8045 70.2571 78.7486 81.4452 78.0857C92.7322 77.4171 91.6466 59.6002 79.9897 60.7372Z" fill="white"/>
<path d="M72.2321 83.4992C80.9701 84.0324 97.5887 79.9093 98.751 93.1105C98.8246 93.9463 98.8771 98.2077 98.6553 98.7469C98.2337 99.7718 96.6272 99.7737 96.2049 98.7469C95.8468 97.8761 96.2034 94.8928 96.1032 93.6846C95.7495 89.4104 92.6295 86.4345 88.4533 86.1176C85.0803 85.8614 74.4269 85.6748 71.5163 86.4106C68.4245 87.192 66.0079 90.1228 65.6775 93.3226C65.5297 94.7548 65.9434 97.4777 65.6153 98.6163C65.2546 99.8683 63.2603 99.7862 63.0104 98.4604C62.832 97.5138 62.9147 94.1859 63.0092 93.1108C63.439 88.2293 67.463 84.1343 72.2321 83.4995V83.4992Z" fill="white"/>
<path d="M63.0059 59.3413V54.8453C63.0059 54.7913 63.6673 54.1304 63.7656 54.0844C64.582 53.7035 65.209 54.1869 65.6152 54.8846C65.4806 57.3449 65.9307 60.2926 65.6585 62.6931C65.5419 63.7209 65.0069 64.0148 64.0464 64.1234C62.6563 64.2806 58.2085 64.3145 56.903 64.078C55.8089 63.88 55.2309 62.535 56.06 61.6887C56.1052 61.6427 56.8137 61.2539 56.8591 61.2539H60.9257L52.9723 53.1342C52.194 51.773 53.5323 50.2782 54.8648 51.22L63.0063 59.3413H63.0059Z" fill="white"/>
<path d="M56.7106 21.886L73.1144 21.856C74.6419 22.1087 74.6725 24.3258 72.9407 24.5274C67.9843 25.1047 61.943 24.0964 56.8704 24.512C55.4567 24.367 55.3632 22.186 56.7109 21.886H56.7106Z" fill="white"/>
<path d="M56.7106 28.5818L73.1144 28.5518C74.6419 28.8045 74.6725 31.0216 72.9407 31.2232C67.9843 31.8005 61.943 30.7922 56.8704 31.2078C55.4567 31.0628 55.3632 28.8818 56.7109 28.5818H56.7106Z" fill="white"/>
</g>
<defs>
<linearGradient id="paint0_linear_191_780" x1="56" y1="0" x2="56" y2="112" gradientUnits="userSpaceOnUse">
<stop stop-color="#F26322"/>
<stop offset="1" stop-color="#0663BF"/>
</linearGradient>
<clipPath id="clip0_191_780">
<rect width="85" height="86" fill="white" transform="translate(13.8145 13.5454)"/>
</clipPath>
</defs>
</svg>
