<svg width="24" height="24" viewBox="0 0 24 24" fill="none" xmlns="http://www.w3.org/2000/svg">
<path d="M20.3897 3.57701C18.1533 1.34066 15.1799 0.109009 12.0172 0.109009C8.85451 0.109009 5.88112 1.34066 3.64476 3.57701C1.40841 5.81337 0.176758 8.78676 0.176758 11.9495C0.176758 15.1122 1.40841 18.0856 3.64476 20.3219C5.88112 22.5583 8.85451 23.7899 12.0172 23.7899C15.1799 23.7899 18.1533 22.5583 20.3897 20.3219C22.626 18.0856 23.8577 15.1122 23.8577 11.9495C23.8577 8.78676 22.626 5.81337 20.3897 3.57701ZM22.4149 8.12402H17.0848C16.8371 6.47784 16.4287 4.967 15.8776 3.69488C15.3896 2.56855 14.8138 1.68952 14.1799 1.08325C17.986 1.83953 21.0963 4.55135 22.4149 8.12402ZM1.6195 15.7749H6.94961C7.19732 17.4211 7.6057 18.9319 8.15688 20.2041C8.64484 21.3304 9.22059 22.2094 9.85455 22.8157C6.04839 22.0594 2.93809 19.3475 1.6195 15.7749ZM14.1784 22.8159C14.3531 22.6494 14.5234 22.4626 14.6883 22.2551C15.4195 21.3352 16.0487 20.0145 16.508 18.436C16.5667 18.234 16.4506 18.0226 16.2487 17.9639C16.047 17.9049 15.8354 18.0212 15.7766 18.2232C15.3448 19.7076 14.7622 20.938 14.092 21.7811C13.6398 22.35 12.9127 23.0282 12.0173 23.0282C10.0854 23.0282 8.38687 19.9616 7.72636 15.7749H13.8613C14.0717 15.7749 14.2422 15.6044 14.2422 15.3941C14.2422 15.1837 14.0717 15.0132 13.8613 15.0132H7.61926C7.49835 14.0359 7.43299 13.0072 7.43299 11.9495C7.43299 11.7929 7.43436 11.6348 7.43711 11.4798C7.44076 11.2695 7.27329 11.096 7.063 11.0923C6.85185 11.0864 6.6792 11.2562 6.67549 11.4664C6.6727 11.6259 6.67127 11.7884 6.67127 11.9495C6.67127 12.9982 6.73145 14.0262 6.84754 15.0132H1.36966C1.08914 14.0398 0.938477 13.0119 0.938477 11.9495C0.938477 10.887 1.0892 9.85911 1.36966 8.88574H4.41516C4.62555 8.88574 4.79602 8.71526 4.79602 8.50488C4.79602 8.29449 4.62555 8.12402 4.41516 8.12402H1.6195C2.93829 4.5509 6.0492 1.83882 9.85602 1.08299C9.68067 1.25017 9.50974 1.4378 9.3443 1.64611C8.61269 2.56743 7.98331 3.88993 7.52425 5.47054C7.46559 5.67255 7.58178 5.88385 7.78374 5.9425C7.98564 6.00106 8.19705 5.88497 8.2557 5.68301C8.68744 4.19649 9.27016 2.96434 9.94082 2.11979C10.3933 1.54993 11.1209 0.870677 12.0172 0.870677C13.949 0.870677 15.6476 3.93731 16.3081 8.12397H10.2041C9.99369 8.12397 9.82321 8.29444 9.82321 8.50483C9.82321 8.71521 9.99369 8.88568 10.2041 8.88568H16.4152C16.5361 9.86302 16.6014 10.8916 16.6014 11.9494C16.6014 12.1019 16.6001 12.2577 16.5974 12.4124C16.5938 12.6228 16.7614 12.7962 16.9717 12.7998C16.9739 12.7999 16.9762 12.7999 16.9784 12.7999C17.1857 12.7999 17.3555 12.6336 17.3591 12.4255C17.3618 12.2664 17.3632 12.1062 17.3632 11.9494C17.3632 10.9007 17.303 9.87272 17.1869 8.88568H22.6647C22.9452 9.85906 23.0959 10.887 23.0959 11.9494C23.0959 13.0119 22.9452 14.0398 22.6647 15.0132H19.6501C19.4397 15.0132 19.2692 15.1836 19.2692 15.394C19.2692 15.6044 19.4397 15.7749 19.6501 15.7749H22.4149C21.0961 19.348 17.9852 22.0601 14.1784 22.8159Z" fill="#F86F03"/>
<path d="M7.30996 7.23254C6.62538 7.23254 6.06836 7.80145 6.06836 8.50081C6.06836 9.20016 6.62538 9.76912 7.30996 9.76912C7.99459 9.76912 8.55161 9.20016 8.55161 8.50081C8.55161 7.80145 7.99459 7.23254 7.30996 7.23254ZM7.30996 9.00735C7.04534 9.00735 6.83008 8.7801 6.83008 8.50075C6.83008 8.22146 7.04534 7.99421 7.30996 7.99421C7.57458 7.99421 7.78989 8.22146 7.78989 8.50075C7.78989 8.78015 7.57458 9.00735 7.30996 9.00735Z" fill="#F86F03"/>
<path d="M16.9949 15.0132H16.6201C16.4097 15.0132 16.2393 15.1837 16.2393 15.394C16.2393 15.6044 16.4097 15.7749 16.6201 15.7749H16.9949C17.2053 15.7749 17.3758 15.6044 17.3758 15.394C17.3758 15.1837 17.2053 15.0132 16.9949 15.0132Z" fill="#F86F03"/>
</svg>
