<svg width="20" height="24" viewBox="0 0 20 24" fill="none" xmlns="http://www.w3.org/2000/svg">
<path d="M19.5617 8.20884C19.5707 8.09921 19.5322 7.98876 19.4517 7.90827L13.9934 2.44995C13.913 2.36951 13.8025 2.33102 13.6929 2.34C13.682 2.33934 13.6711 2.33838 13.66 2.33838H5.6503C4.3957 2.33838 3.37505 3.35908 3.37505 4.61363V6.51524C3.37505 6.72563 3.54557 6.8961 3.75591 6.8961C3.96625 6.8961 4.13677 6.72563 4.13677 6.51524V4.61363C4.13677 3.77904 4.81577 3.1001 5.6503 3.1001H13.3433V8.17756C13.3433 8.38795 13.5138 8.55842 13.7242 8.55842H18.8016V21.8519C18.8016 22.5134 18.2635 23.0515 17.602 23.0515H5.3345C4.67404 23.0515 4.13672 22.5142 4.13672 21.8537V9.83989C4.13672 9.6295 3.96619 9.45903 3.75586 9.45903C3.54552 9.45903 3.375 9.6295 3.375 9.83989V21.8538C3.375 22.9342 4.25402 23.8133 5.3345 23.8133H17.6019C18.6834 23.8133 19.5632 22.9335 19.5632 21.852V8.24165C19.5632 8.23063 19.5623 8.21976 19.5617 8.20884ZM14.1049 7.79675V3.63879L18.2629 7.79675H14.1049Z" fill="#F86F03"/>
<path d="M2.56191 21.1352C1.90531 21.1352 1.37114 20.601 1.37114 19.9445V2.1039C1.37114 1.44248 1.90927 0.904297 2.57075 0.904297H15.0189C15.6803 0.904297 16.2185 1.44248 16.2185 2.1039V3.74967C16.2185 3.96006 16.389 4.13053 16.5993 4.13053C16.8097 4.13053 16.9802 3.96006 16.9802 3.74967V2.1039C16.9802 1.02241 16.1003 0.142578 15.0189 0.142578H2.5707C1.48926 0.142578 0.609375 1.02241 0.609375 2.1039V19.9444C0.609375 21.021 1.48525 21.8969 2.56186 21.8969C2.7722 21.8969 2.94272 21.7264 2.94272 21.5161C2.94272 21.3057 2.77225 21.1352 2.56191 21.1352Z" fill="#F86F03"/>
<path d="M10.5986 8.83023C10.8601 8.83023 11.0722 8.6182 11.0722 8.35664C11.0722 8.09509 10.8601 7.88306 10.5986 7.88306C10.337 7.88306 10.125 8.09509 10.125 8.35664C10.125 8.6182 10.337 8.83023 10.5986 8.83023Z" fill="#F86F03"/>
<path d="M6.57324 21.1666H16.1282C16.3385 21.1666 16.5091 20.9962 16.5091 20.7858C16.5091 20.5754 16.3385 20.4049 16.1282 20.4049H6.57324C6.36291 20.4049 6.19238 20.5754 6.19238 20.7858C6.19238 20.9962 6.36291 21.1666 6.57324 21.1666Z" fill="#F86F03"/>
<path d="M6.57324 18.4398H11.4694C11.6798 18.4398 11.8503 18.2693 11.8503 18.059C11.8503 17.8486 11.6798 17.6781 11.4694 17.6781H6.57324C6.36291 17.6781 6.19238 17.8486 6.19238 18.059C6.19238 18.2693 6.36291 18.4398 6.57324 18.4398Z" fill="#F86F03"/>
<path d="M16.1284 17.6781H13.9814C13.7711 17.6781 13.6006 17.8486 13.6006 18.059C13.6006 18.2693 13.7711 18.4398 13.9814 18.4398H16.1284C16.3388 18.4398 16.5093 18.2693 16.5093 18.059C16.5093 17.8486 16.3388 17.6781 16.1284 17.6781Z" fill="#F86F03"/>
<path d="M6.57324 15.7131H16.1282C16.3385 15.7131 16.5091 15.5427 16.5091 15.3323C16.5091 15.1219 16.3385 14.9514 16.1282 14.9514H6.57324C6.36291 14.9514 6.19238 15.1219 6.19238 15.3323C6.19238 15.5427 6.36291 15.7131 6.57324 15.7131Z" fill="#F86F03"/>
<path d="M6.57324 12.9865H13.462C13.6724 12.9865 13.8429 12.816 13.8429 12.6056C13.8429 12.3952 13.6724 12.2247 13.462 12.2247H6.57324C6.36291 12.2247 6.19238 12.3952 6.19238 12.6056C6.19238 12.816 6.36291 12.9865 6.57324 12.9865Z" fill="#F86F03"/>
<path d="M6.57324 8.73755H8.0361C8.24643 8.73755 8.41696 8.56708 8.41696 8.35669C8.41696 8.1463 8.24643 7.97583 8.0361 7.97583H6.57324C6.36291 7.97583 6.19238 8.1463 6.19238 8.35669C6.19238 8.56708 6.36291 8.73755 6.57324 8.73755Z" fill="#F86F03"/>
<path d="M10.5986 5.24915H6.57324C6.36291 5.24915 6.19238 5.41962 6.19238 5.63001C6.19238 5.84039 6.36291 6.01086 6.57324 6.01086H10.5986C10.809 6.01086 10.9795 5.84039 10.9795 5.63001C10.9795 5.41962 10.809 5.24915 10.5986 5.24915Z" fill="#F86F03"/>
<path d="M3.75586 8.74341C3.96619 8.74341 4.13672 8.57293 4.13672 8.36255V7.99255C4.13672 7.78217 3.96619 7.61169 3.75586 7.61169C3.54552 7.61169 3.375 7.78217 3.375 7.99255V8.36255C3.375 8.57293 3.54552 8.74341 3.75586 8.74341Z" fill="#F86F03"/>
</svg>
