<svg width="67" height="68" viewBox="0 0 67 68" fill="none" xmlns="http://www.w3.org/2000/svg">
<path d="M33.5 33.0015C38.6983 33.0015 42.9274 28.7723 42.9274 23.5741C42.9274 18.3758 38.6983 14.1469 33.5 14.1469C28.3017 14.1469 24.0726 18.376 24.0726 23.5742C24.0726 28.7725 28.3017 33.0015 33.5 33.0015ZM33.5 16.1097C37.6159 16.1097 40.9645 19.4583 40.9645 23.5742C40.9645 27.6901 37.6159 31.0386 33.5 31.0386C29.3841 31.0386 26.0355 27.69 26.0355 23.5741C26.0355 19.4582 29.3841 16.1097 33.5 16.1097Z" fill="white"/>
<path d="M20.4199 62.7106H19.4421C18.9001 62.7106 18.4607 63.15 18.4607 63.692C18.4607 64.234 18.9001 64.6735 19.4421 64.6735H20.4199C20.9619 64.6735 21.4014 64.234 21.4014 63.692C21.4014 63.15 20.9619 62.7106 20.4199 62.7106Z" fill="white"/>
<path d="M54.6147 33.15H50.1612C52.1401 29.8171 53.4847 26.4833 53.4847 23.5741C53.4847 12.5545 44.5197 3.58948 33.5001 3.58948C22.4806 3.58948 13.5154 12.5545 13.5154 23.5741C13.5154 26.4832 14.86 29.8171 16.839 33.15H12.3853C9.51557 33.15 7.18091 35.4846 7.18091 38.3544V59.4691C7.18091 62.3388 9.51557 64.6735 12.3853 64.6735H15.5674C16.1094 64.6735 16.5489 64.234 16.5489 63.692C16.5489 63.15 16.1094 62.7106 15.5674 62.7106H12.3853C10.5979 62.7106 9.1438 61.2565 9.1438 59.4691V52.0046H32.7926L36.3612 62.7104H24.3342C23.7922 62.7104 23.3528 63.1499 23.3528 63.6919C23.3528 64.2339 23.7922 64.6733 24.3342 64.6733H37.7196C37.7206 64.6733 37.7218 64.6736 37.7228 64.6736C37.7239 64.6736 37.7249 64.6733 37.726 64.6733H48.2802C48.5405 64.6733 48.7901 64.57 48.9741 64.3858L59.5315 53.8285C59.7156 53.6445 59.819 53.3948 59.819 53.1345V38.3544C59.8191 35.4846 57.4844 33.15 54.6147 33.15ZM54.6147 35.1129C56.4021 35.1129 57.8562 36.567 57.8562 38.3544V41.5959H43.994C45.7191 39.5614 47.4351 37.3568 48.9249 35.1129H54.6147ZM33.5 5.55237C43.4372 5.55237 51.5217 13.6369 51.5217 23.5741C51.5217 26.5013 49.9155 30.0088 47.6459 33.5048C47.6002 33.5598 47.5611 33.6201 47.5283 33.6843C42.921 40.7106 35.6966 47.6492 33.5 49.6915C31.3034 47.6492 24.079 40.7106 19.4717 33.6844C19.4389 33.6203 19.3998 33.5599 19.3541 33.505C17.0845 30.0089 15.4783 26.5013 15.4783 23.5742C15.4783 13.6369 23.5628 5.55237 33.5 5.55237ZM9.1438 38.3544C9.1438 36.567 10.5979 35.1129 12.3853 35.1129H18.075C22.1917 41.3132 28.0416 47.2164 31.0019 50.0417H9.1438V38.3544ZM34.6335 51.32C35.8173 50.2347 38.9245 47.3123 42.2835 43.5586H57.8562V50.0417H48.2803C46.5748 50.0417 45.1874 51.4292 45.1874 53.1345V62.7104H38.4304L34.6335 51.32ZM47.8737 62.7106H47.1502V53.1347C47.1502 52.5115 47.6572 52.0047 48.2802 52.0047H57.8561V52.7282L47.8737 62.7106Z" fill="white"/>
</svg>
