<svg width="24" height="22" viewBox="0 0 24 22" fill="none" xmlns="http://www.w3.org/2000/svg">
<path d="M23.5043 0.280396H10.9115C10.7011 0.280396 10.5307 0.450919 10.5307 0.661255V10.291C10.5307 10.5013 10.7011 10.6719 10.9115 10.6719H14.5546L14.1984 11.3843C13.9082 11.4503 13.6536 11.6313 13.4962 11.8852L12.3241 13.7575L11.9022 13.3356C11.9022 13.3356 11.9021 13.3355 11.9021 13.3355L10.7105 12.144C10.4802 11.9136 10.1726 11.7621 9.84013 11.7168L7.58864 11.4362V10.9407C8.25982 10.4694 8.69979 9.69011 8.69979 8.80946V8.22238C8.94541 7.88413 9.07018 7.45965 9.07018 6.95757C9.07018 5.84247 8.45289 4.86929 7.54233 4.36047C7.57264 4.24082 7.58864 4.11793 7.58864 3.99459C7.58864 3.17188 6.91934 2.50258 6.09669 2.50258C5.27403 2.50258 4.60468 3.17188 4.60468 3.99459C4.60468 4.11793 4.62068 4.24083 4.651 4.36052C3.74049 4.8694 3.12319 5.84252 3.12319 6.95762C3.12319 7.4597 3.24791 7.88423 3.49354 8.22243V8.80951C3.49354 9.69011 3.93351 10.4694 4.60468 10.9407V11.4499L1.71635 11.9312C0.814625 12.0815 0.160156 12.8541 0.160156 13.7683V18.8096C0.160156 19.6323 0.829504 20.3016 1.65216 20.3016H2.38239V21.4022C2.38239 21.6126 2.55287 21.7831 2.76325 21.7831H9.43002C9.64041 21.7831 9.81088 21.6126 9.81088 21.4022V19.9208C9.81088 19.7104 9.64041 19.5399 9.43002 19.5399C9.21963 19.5399 9.04916 19.7104 9.04916 19.9208V21.0214H3.14411V20.3016H7.20773C7.41812 20.3016 7.58859 20.1311 7.58859 19.9208V14.7355C7.58859 14.5251 7.41812 14.3546 7.20773 14.3546H6.1071V13.7259C6.1071 13.46 5.89067 13.2435 5.62468 13.2435H4.34631C4.08032 13.2435 3.86389 13.46 3.86389 13.7259V14.3546H2.7632C2.55282 14.3546 2.38234 14.5251 2.38234 14.7355V15.4658H0.921824V13.7683C0.921824 13.228 1.30862 12.7714 1.84152 12.6826L4.89952 12.173L5.47441 12.5563C5.66342 12.6822 5.8799 12.7453 6.09659 12.7453C6.31327 12.7453 6.52975 12.6822 6.71871 12.5563L7.30112 12.168L9.74146 12.4721C9.90559 12.4945 10.0584 12.5693 10.1718 12.6826L11.1538 13.6646L10.3827 15.0509L9.67793 14.4464C9.56495 14.3495 9.406 14.3273 9.27087 14.3895C9.13569 14.4516 9.04911 14.5867 9.04911 14.7355V16.5874C9.04911 16.7977 9.21958 16.9682 9.42997 16.9682C9.64036 16.9682 9.81083 16.7977 9.81083 16.5874V15.5639L11.4447 16.9651C11.7249 17.206 12.0854 17.3386 12.4596 17.3386C13.0108 17.3386 13.5258 17.0418 13.8034 16.5646L15.5299 13.608C15.6677 13.3704 15.7405 13.1007 15.7405 12.8281C15.7405 12.3348 15.5066 11.8684 15.1188 11.5834C15.0782 11.5527 15.0356 11.5253 14.9917 11.5007L15.4062 10.6718H23.5043C23.7147 10.6718 23.8852 10.5013 23.8852 10.291V0.661255C23.8852 0.450919 23.7147 0.280396 23.5043 0.280396ZM4.62561 14.0052H5.34538V14.725H4.62561V14.0052ZM3.14406 15.1163H3.86439C3.86998 15.3218 4.03791 15.4867 4.24475 15.4867H5.72624C5.93307 15.4867 6.10095 15.3218 6.10659 15.1163H6.82687V17.7485C6.74247 17.7198 6.65411 17.6998 6.5621 17.692C6.56144 17.4622 6.48912 17.2369 6.34917 17.0427C6.13584 16.7467 5.80419 16.5769 5.43927 16.5769H5.35584C5.22848 16.5769 5.10955 16.6405 5.03896 16.7465L4.41131 17.6881H3.14411V15.1164L3.14406 15.1163ZM2.38234 16.2275V18.0689C2.38234 18.2792 2.55282 18.4497 2.7632 18.4497H4.61509C4.74245 18.4497 4.86138 18.3861 4.93197 18.2801L5.5486 17.3552C5.62122 17.3781 5.68495 17.4238 5.73127 17.4881C5.79972 17.5831 5.81775 17.7013 5.78073 17.8123L5.73533 17.9485C5.69658 18.0646 5.71608 18.1923 5.78768 18.2916C5.85923 18.3909 5.9742 18.4498 6.09664 18.4498H6.46698C6.66544 18.4498 6.82687 18.6112 6.82687 18.8097V19.1801C6.82687 19.3785 6.66544 19.5399 6.46698 19.5399H1.65216C1.24946 19.5399 0.921875 19.2124 0.921875 18.8097V16.2275H2.38239L2.38234 16.2275ZM5.36635 3.99459C5.36635 3.59189 5.69394 3.2643 6.09664 3.2643C6.49933 3.2643 6.82687 3.59189 6.82687 3.99459C6.82687 4.0213 6.82509 4.04776 6.82225 4.07401C6.58988 4.01551 6.34689 3.98408 6.09664 3.98408C5.84639 3.98408 5.60335 4.01551 5.37097 4.07401C5.36813 4.04776 5.36635 4.02135 5.36635 3.99459ZM6.09664 4.74579C7.31625 4.74579 8.30841 5.73801 8.30841 6.95757C8.30841 7.25327 8.25235 7.49362 8.13936 7.68786H7.43203C6.72348 7.68786 6.06581 7.33589 5.67271 6.74632C5.59197 6.62526 5.44897 6.56087 5.30526 6.58011C5.16104 6.59946 5.04044 6.69925 4.99448 6.83727L4.97554 6.8942C4.83569 7.3138 4.47357 7.61128 4.04578 7.67481C3.93798 7.48295 3.88486 7.24652 3.88486 6.95757C3.88486 5.73801 4.87702 4.74579 6.09664 4.74579ZM4.25521 8.80941V8.41169C4.73428 8.31531 5.15637 8.04013 5.43785 7.64647C5.96775 8.15713 6.67874 8.44952 7.43203 8.44952H7.93802V8.80941C7.93802 9.48054 7.57696 10.0687 7.03903 10.3906C7.02329 10.3984 7.00801 10.4069 6.99359 10.4167C6.728 10.5655 6.42214 10.6508 6.09664 10.6508C5.77113 10.6508 5.46522 10.5655 5.19959 10.4167C5.18521 10.4069 5.16998 10.3984 5.15429 10.3906C4.61631 10.0688 4.25521 9.48054 4.25521 8.80936V8.80941ZM6.29621 11.9224C6.17484 12.0032 6.01818 12.0031 5.89696 11.9224L5.36635 11.5686V11.3075C5.59822 11.3754 5.84314 11.4126 6.09664 11.4126C6.35014 11.4126 6.595 11.3755 6.82687 11.3076V11.5687L6.29626 11.9224L6.29621 11.9224ZM14.8715 13.2248L13.1452 16.181C13.0032 16.4251 12.7405 16.5768 12.4596 16.5768C12.2675 16.5768 12.0833 16.5095 11.9409 16.3871L10.9729 15.5569L11.7139 14.2245L12.1237 14.6343C12.2057 14.7164 12.3207 14.7566 12.4359 14.7435C12.5512 14.7304 12.6542 14.6655 12.7158 14.5671L14.1426 12.2879C14.1967 12.2007 14.281 12.1425 14.38 12.124C14.4788 12.1055 14.5781 12.1294 14.6638 12.1941C14.8611 12.3391 14.9788 12.576 14.9788 12.8279C14.9788 12.9666 14.9416 13.1041 14.8716 13.2247L14.8715 13.2248ZM23.1234 9.91004H15.787L16.1469 9.19027H22.0227C22.233 9.19027 22.4035 9.01975 22.4035 8.80941V2.14275C22.4035 1.93241 22.233 1.76189 22.0227 1.76189H12.3929C12.1825 1.76189 12.012 1.93241 12.012 2.14275V8.80951C12.012 9.01985 12.1825 9.19037 12.3929 9.19037H15.2952L14.9353 9.91015H11.2922V1.04211H23.1233V9.91015L23.1234 9.91004ZM16.6374 7.35763C16.4492 7.26353 16.2204 7.3398 16.1264 7.52795L15.6762 8.4285H12.7739V2.52345H21.6419V8.4285H16.5278L16.8078 7.86859C16.9019 7.68044 16.8255 7.45167 16.6374 7.35763Z" fill="#F86F03"/>
</svg>
