<svg width="67" height="68" viewBox="0 0 67 68" fill="none" xmlns="http://www.w3.org/2000/svg">
<path d="M33.4755 32.7627C29.4656 32.7627 26.2034 36.025 26.2034 40.0349C26.2034 44.0449 29.4657 47.3072 33.4755 47.3072C37.4855 47.3072 40.7477 44.0449 40.7477 40.0349C40.7477 36.025 37.4855 32.7627 33.4755 32.7627ZM33.4755 45.3443C30.5479 45.3443 28.1663 42.9625 28.1663 40.0349C28.1663 37.1074 30.5479 34.7256 33.4755 34.7256C36.4031 34.7256 38.7848 37.1074 38.7848 40.0349C38.7848 42.9625 36.4032 45.3443 33.4755 45.3443Z" fill="white"/>
<path d="M62.8132 19.05C61.9529 18.3198 58.702 15.7573 52.9922 13.4357C46.8901 10.9546 40.3237 9.69666 33.4755 9.69666C26.6273 9.69666 20.0609 10.9546 13.9588 13.4357C8.24904 15.7573 4.9981 18.3198 4.14175 19.0466C3.04083 19.9707 2.62274 21.8951 3.20716 23.3305L5.11901 28.1099C6.21182 30.8549 8.82822 32.6286 11.7847 32.6286H19.4072L18.7263 35.5742C18.0258 37.6473 16.5607 38.8352 14.7008 38.8352C13.0305 38.8352 11.3624 39.602 10.3475 40.8361C9.53395 41.8254 9.21386 43.02 9.44588 44.1992L11.3134 53.7318H10.409C9.86685 53.7318 9.42756 54.1712 9.42756 54.7132C9.42756 55.2552 9.86685 55.6946 10.409 55.6946H12.5058H13.6212V58.907C13.6212 59.449 14.0605 59.8884 14.6027 59.8884C15.1448 59.8884 15.5841 59.449 15.5841 58.907V55.6946H40.1486C40.6908 55.6946 41.1301 55.2552 41.1301 54.7132C41.1301 54.1712 40.6908 53.7318 40.1486 53.7318H13.3141L11.3724 43.821C11.2227 43.0604 11.557 42.456 11.864 42.0828C12.5058 41.3023 13.6194 40.7981 14.7012 40.7981C17.4339 40.7981 19.6405 39.0603 20.604 36.1494C20.6134 36.1206 20.6217 36.0915 20.6286 36.0619L22.024 30.0249C22.778 27.8177 24.8462 26.3378 27.1848 26.3378H39.7664C42.1051 26.3378 44.1735 27.8177 44.9272 30.0251L46.3256 36.0623C46.3324 36.0914 46.3404 36.12 46.3497 36.1483C47.31 39.0599 49.5157 40.7981 52.2501 40.7981C54.0756 40.7981 55.5122 42.1627 55.5592 43.9214L53.637 53.7318H48.906C48.3639 53.7318 47.9246 54.1712 47.9246 54.7132C47.9246 55.2552 48.3639 55.6946 48.906 55.6946H51.3664V58.907C51.3664 59.449 51.8057 59.8884 52.3479 59.8884C52.89 59.8884 53.3293 59.449 53.3293 58.907V55.6946H54.4417C54.4431 55.6946 54.4445 55.6948 54.4457 55.6948C54.4471 55.6948 54.4486 55.6946 54.45 55.6946H56.5415C57.0837 55.6946 57.523 55.2552 57.523 54.7132C57.523 54.1712 57.0837 53.7318 56.5415 53.7318H55.637L57.5046 44.1992C57.5168 44.137 57.523 44.0738 57.523 44.0105C57.523 41.1084 55.2068 38.8352 52.2499 38.8352C50.389 38.8352 48.925 37.6476 48.2274 35.5746L47.5449 32.6286H55.1659C58.1226 32.6286 60.739 30.8549 61.8312 28.1113L63.7414 23.336C64.3283 21.8952 63.9102 19.971 62.8132 19.05ZM61.9212 22.6015L60.0082 27.384C59.2146 29.3776 57.3139 30.6658 55.1661 30.6658H47.0905L46.8287 29.5357C46.8218 29.5059 46.8136 29.4764 46.8039 29.4474C46.1101 27.3615 44.5565 25.7462 42.6135 24.9403C42.7577 24.7694 42.845 24.5491 42.845 24.3079V21.1627C42.845 20.6207 42.4057 20.1812 41.8635 20.1812C41.3214 20.1812 40.8821 20.6207 40.8821 21.1627V24.308C40.8821 24.3604 40.8875 24.4113 40.8953 24.4614C40.526 24.405 40.149 24.375 39.7667 24.375H27.185C26.8027 24.375 26.4257 24.405 26.0564 24.4614C26.0642 24.4113 26.0696 24.3604 26.0696 24.308V21.1627C26.0696 20.6207 25.6303 20.1812 25.0882 20.1812C24.546 20.1812 24.1067 20.6207 24.1067 21.1627V24.308C24.1067 24.5491 24.194 24.7696 24.3382 24.9403C22.3951 25.7462 20.8415 27.3615 20.1477 29.4474C20.138 29.4766 20.1295 29.5062 20.1227 29.5361L19.8616 30.6657H11.7851C9.63733 30.6657 7.73659 29.3775 6.94241 27.3823L5.02767 22.5957C4.76268 21.9451 4.94903 20.9317 5.40795 20.5463C7.06502 19.1401 10.3759 17.0113 14.6983 15.2539C20.5643 12.8687 26.882 11.6594 33.4755 11.6594C40.0691 11.6594 46.3866 12.8688 52.2527 15.2539C56.5751 17.0113 59.8859 19.1401 61.547 20.5497C62.002 20.9319 62.1884 21.9454 61.9212 22.6015Z" fill="white"/>
<path d="M45.0017 53.7319H44.0239C43.4818 53.7319 43.0425 54.1714 43.0425 54.7134C43.0425 55.2554 43.4818 55.6948 44.0239 55.6948H45.0017C45.5439 55.6948 45.9832 55.2554 45.9832 54.7134C45.9832 54.1714 45.5437 53.7319 45.0017 53.7319Z" fill="white"/>
</svg>
