<svg width="24" height="24" viewBox="0 0 24 24" fill="none" xmlns="http://www.w3.org/2000/svg">
<path d="M3.43645 10.0527H2.40168C1.15602 10.0527 0.142578 11.0662 0.142578 12.3118V23.0119C0.142578 23.2222 0.313051 23.3927 0.523438 23.3927H5.31475C5.52514 23.3927 5.69561 23.2222 5.69561 23.0119V12.3119C5.69561 11.0662 4.68217 10.0527 3.43645 10.0527ZM4.93389 22.631H0.904297V12.3119C0.904297 11.4862 1.57603 10.8145 2.40168 10.8145H3.43645C4.26216 10.8145 4.93384 11.4862 4.93384 12.3119L4.93389 22.631Z" fill="#F86F03"/>
<path d="M12.5312 0.548828H11.4964C10.2507 0.548828 9.2373 1.56227 9.2373 2.80793V23.0119C9.2373 23.2223 9.40778 23.3928 9.61816 23.3928H14.4095C14.6199 23.3928 14.7903 23.2223 14.7903 23.0119V21.4327C14.7903 21.2223 14.6199 21.0519 14.4095 21.0519C14.1991 21.0519 14.0286 21.2223 14.0286 21.4327V22.6311H9.99902V2.80793C9.99902 1.98223 10.6708 1.31055 11.4964 1.31055H12.5312C13.3569 1.31055 14.0286 1.98228 14.0286 2.80793V18.0996C14.0286 18.31 14.199 18.4804 14.4094 18.4804C14.6198 18.4804 14.7903 18.31 14.7903 18.0996V2.80793C14.7903 1.56227 13.7768 0.548828 12.5312 0.548828Z" fill="#F86F03"/>
<path d="M21.6249 5.51599H20.5902C19.3445 5.51599 18.3311 6.52943 18.3311 7.7751V23.0119C18.3311 23.2223 18.5015 23.3928 18.7119 23.3928H23.5032C23.7136 23.3928 23.8841 23.2223 23.8841 23.0119V7.77515C23.884 6.52943 22.8706 5.51599 21.6249 5.51599ZM23.1223 22.6311H19.0927V7.77515C19.0927 6.94944 19.7645 6.27776 20.5901 6.27776H21.6249C22.4506 6.27776 23.1223 6.94949 23.1223 7.77515L23.1223 22.6311Z" fill="#F86F03"/>
<path d="M14.4092 19.193C14.1988 19.193 14.0283 19.3635 14.0283 19.5739V19.9468C14.0283 20.1572 14.1988 20.3277 14.4092 20.3277C14.6196 20.3277 14.79 20.1572 14.79 19.9468V19.5739C14.79 19.3635 14.6196 19.193 14.4092 19.193Z" fill="black"/>
</svg>
