<svg width="24" height="19" viewBox="0 0 24 19" fill="none" xmlns="http://www.w3.org/2000/svg">
<path d="M11.936 10.2431C13.6432 10.2431 15.0322 8.85418 15.0322 7.14696C15.0322 5.43975 13.6432 4.05078 11.936 4.05078C10.2288 4.05078 8.83984 5.43975 8.83984 7.14696C8.83984 8.85418 10.2288 10.2431 11.936 10.2431ZM11.936 4.8125C13.2232 4.8125 14.2705 5.85971 14.2705 7.14696C14.2705 8.43422 13.2232 9.48143 11.936 9.48143C10.6488 9.48143 9.60156 8.43422 9.60156 7.14696C9.60156 5.85971 10.6488 4.8125 11.936 4.8125Z" fill="#F86F03"/>
<path d="M6.02459 5.40361C7.45383 5.40361 8.61657 4.24087 8.61657 2.81158C8.61657 1.38234 7.45383 0.219604 6.02459 0.219604C4.59536 0.219604 3.43262 1.38234 3.43262 2.81158C3.43257 4.24082 4.59536 5.40361 6.02459 5.40361ZM6.02459 0.981323C7.03382 0.981323 7.85485 1.80235 7.85485 2.81158C7.85485 3.82081 7.03382 4.64189 6.02459 4.64189C5.01537 4.64189 4.19434 3.82081 4.19434 2.81158C4.19434 1.80235 5.01537 0.981323 6.02459 0.981323Z" fill="#F86F03"/>
<path d="M7.91455 11.3255C8.12489 11.3255 8.29541 11.155 8.29541 10.9446C8.29541 10.7343 8.12489 10.5638 7.91455 10.5638H0.901766C1.11393 8.33449 3.19825 7.52783 5.15566 7.52783H6.63253C6.84287 7.52783 7.01339 7.35736 7.01339 7.14697C7.01339 6.93659 6.84287 6.76611 6.63253 6.76611H5.15566C3.74064 6.76611 2.52428 7.11564 1.63794 7.77691C0.646285 8.5168 0.12207 9.61225 0.12207 10.9446C0.12207 10.9578 0.12273 10.9709 0.124051 10.9837C0.143703 11.1805 0.310266 11.3348 0.512223 11.3348C0.54066 11.3348 0.568285 11.3314 0.594945 11.3255H7.91455Z" fill="#F86F03"/>
<path d="M17.8478 5.40361C19.2771 5.40361 20.4398 4.24087 20.4398 2.81158C20.4398 1.38234 19.2771 0.219604 17.8478 0.219604C16.4186 0.219604 15.2559 1.38234 15.2559 2.81158C15.2558 4.24082 16.4186 5.40361 17.8478 5.40361ZM17.8478 0.981323C18.8571 0.981323 19.6781 1.80235 19.6781 2.81158C19.6781 3.82081 18.8571 4.64189 17.8478 4.64189C16.8386 4.64189 16.0176 3.82081 16.0176 2.81158C16.0176 1.80235 16.8386 0.981323 17.8478 0.981323Z" fill="#F86F03"/>
<path d="M23.7504 10.9446C23.7504 9.61225 23.2263 8.5168 22.2346 7.77691C21.3482 7.11564 20.1318 6.76611 18.7169 6.76611H17.24C17.0296 6.76611 16.8591 6.93659 16.8591 7.14697C16.8591 7.35736 17.0296 7.52783 17.24 7.52783H18.7169C20.6743 7.52783 22.7586 8.33444 22.9708 10.5638H15.958C15.7477 10.5638 15.5771 10.7343 15.5771 10.9446C15.5771 11.155 15.7477 11.3255 15.958 11.3255H23.2776C23.3042 11.3314 23.3319 11.3348 23.3603 11.3348C23.5622 11.3348 23.7288 11.1805 23.7485 10.9837C23.7498 10.9709 23.7504 10.9578 23.7504 10.9446Z" fill="#F86F03"/>
<path d="M13.7102 12.2581C13.506 12.2072 13.2994 12.3317 13.2487 12.5358C13.1979 12.74 13.3222 12.9466 13.5264 12.9973C16.0435 13.6231 17.8014 15.6755 17.8014 17.9885C17.8014 18.1989 17.972 18.3693 18.1823 18.3693C18.3926 18.3693 18.5632 18.1989 18.5632 17.9885C18.5632 15.3248 16.5675 12.9684 13.7102 12.2581Z" fill="#F86F03"/>
<path d="M10.1616 12.2581C7.3042 12.9684 5.30859 15.3249 5.30859 17.9885C5.30859 18.1989 5.47912 18.3693 5.68945 18.3693C5.89979 18.3693 6.07031 18.1989 6.07031 17.9885C6.07031 15.6755 7.82831 13.6231 10.3454 12.9973C10.5496 12.9466 10.6739 12.74 10.6232 12.5358C10.5723 12.3317 10.3658 12.2071 10.1616 12.2581Z" fill="#F86F03"/>
<path d="M12.1243 12.0426H11.7471C11.5367 12.0426 11.3662 12.2131 11.3662 12.4235C11.3662 12.6338 11.5367 12.8043 11.7471 12.8043H12.1243C12.3347 12.8043 12.5052 12.6338 12.5052 12.4235C12.5052 12.2131 12.3347 12.0426 12.1243 12.0426Z" fill="#F86F03"/>
</svg>
