<svg width="67" height="68" viewBox="0 0 67 68" fill="none" xmlns="http://www.w3.org/2000/svg">
<path d="M55.1189 12.4397C49.356 6.67679 41.6937 3.50293 33.5437 3.50293C25.3936 3.50293 17.7314 6.67679 11.9685 12.4397C6.2056 18.2026 3.03174 25.8648 3.03174 34.0149C3.03174 42.1649 6.2056 49.8271 11.9685 55.5901C17.7314 61.353 25.3936 64.5268 33.5437 64.5268C41.6937 64.5268 49.356 61.353 55.1189 55.5901C60.8818 49.8271 64.0557 42.1649 64.0557 34.0149C64.0557 25.8648 60.8818 18.2026 55.1189 12.4397ZM60.3378 24.157H46.6025C45.9642 19.9149 44.9118 16.0216 43.4915 12.7434C42.2339 9.84097 40.7503 7.5758 39.1167 6.01347C48.9249 7.96236 56.9399 14.9505 60.3378 24.157ZM6.74958 43.8728H20.4848C21.1232 48.1149 22.1755 52.0082 23.5959 55.2863C24.8533 58.1888 26.337 60.454 27.9707 62.0163C18.1625 60.0674 10.1475 53.0791 6.74958 43.8728ZM39.1129 62.017C39.5631 61.5879 40.002 61.1063 40.4269 60.5718C42.3111 58.2012 43.9326 54.798 45.116 50.7301C45.2674 50.2096 44.9682 49.6649 44.4478 49.5136C43.928 49.3615 43.3827 49.6612 43.2313 50.1818C42.1185 54.0071 40.6173 57.1775 38.8902 59.3503C37.725 60.8163 35.8514 62.564 33.5438 62.564C28.5657 62.564 24.1886 54.6615 22.4865 43.8728H38.2959C38.838 43.8728 39.2773 43.4335 39.2773 42.8913C39.2773 42.3492 38.838 41.9099 38.2959 41.9099H22.2105C21.8989 39.3914 21.7305 36.7407 21.7305 34.0149C21.7305 33.6113 21.734 33.2041 21.7411 32.8047C21.7505 32.2627 21.3189 31.8157 20.7771 31.8061C20.2329 31.7908 19.788 32.2283 19.7785 32.7702C19.7713 33.1811 19.7676 33.5998 19.7676 34.0149C19.7676 36.7173 19.9227 39.3664 20.2218 41.9099H6.10576C5.38289 39.4016 4.99463 36.7527 4.99463 34.0149C4.99463 31.277 5.38302 28.6282 6.10576 26.1199H13.9538C14.4959 26.1199 14.9352 25.6806 14.9352 25.1384C14.9352 24.5963 14.4959 24.157 13.9538 24.157H6.74958C10.148 14.9493 18.1646 7.96052 27.9745 6.01281C27.5226 6.4436 27.0821 6.92713 26.6558 7.46391C24.7705 9.83809 23.1486 13.2461 21.9657 17.3192C21.8145 17.8398 22.1139 18.3843 22.6343 18.5354C23.1546 18.6863 23.6994 18.3871 23.8505 17.8667C24.9631 14.0361 26.4647 10.8609 28.193 8.68457C29.3591 7.21606 31.2339 5.46569 33.5437 5.46569C38.5219 5.46569 42.899 13.3682 44.6011 24.1569H28.8714C28.3292 24.1569 27.8899 24.5962 27.8899 25.1383C27.8899 25.6805 28.3292 26.1197 28.8714 26.1197H44.8769C45.1885 28.6383 45.3569 31.289 45.3569 34.0148C45.3569 34.4076 45.3535 34.8091 45.3466 35.2079C45.3373 35.75 45.7691 36.1968 46.311 36.2061C46.3167 36.2063 46.3225 36.2063 46.3283 36.2063C46.8624 36.2063 47.3 35.778 47.3092 35.2417C47.3163 34.8316 47.3198 34.4188 47.3198 34.0148C47.3198 31.3124 47.1647 28.6633 46.8656 26.1197H60.9815C61.7044 28.6281 62.0926 31.2769 62.0926 34.0148C62.0926 36.7526 61.7042 39.4014 60.9815 41.9098H53.213C52.6709 41.9098 52.2316 42.3491 52.2316 42.8912C52.2316 43.4334 52.6709 43.8727 53.213 43.8727H60.3378C56.9394 53.0804 48.9228 60.0691 39.1129 62.017Z" fill="white"/>
<path d="M21.4126 21.8597C19.6485 21.8597 18.2131 23.3258 18.2131 25.128C18.2131 26.9301 19.6485 28.3963 21.4126 28.3963C23.1769 28.3963 24.6123 26.9301 24.6123 25.128C24.6123 23.3258 23.1769 21.8597 21.4126 21.8597ZM21.4126 26.4333C20.7307 26.4333 20.176 25.8477 20.176 25.1278C20.176 24.4081 20.7307 23.8225 21.4126 23.8225C22.0946 23.8225 22.6494 24.4081 22.6494 25.1278C22.6494 25.8478 22.0946 26.4333 21.4126 26.4333Z" fill="white"/>
<path d="M46.3716 41.9099H45.4058C44.8636 41.9099 44.4243 42.3492 44.4243 42.8914C44.4243 43.4335 44.8636 43.8728 45.4058 43.8728H46.3716C46.9138 43.8728 47.3531 43.4335 47.3531 42.8914C47.3531 42.3492 46.9138 41.9099 46.3716 41.9099Z" fill="white"/>
</svg>
