<svg width="112" height="113" viewBox="0 0 112 113" fill="none" xmlns="http://www.w3.org/2000/svg">
<rect width="112" height="112" rx="25" transform="matrix(1 0 0 -1 0 112.545)" fill="url(#paint0_linear_191_783)"/>
<g clip-path="url(#clip0_191_783)">
<path d="M27.9566 97.0541C27.9105 97.0947 27.7829 97.9432 27.6391 98.2305C27.1098 99.2959 25.8614 100.285 24.6537 100.415C23.2343 100.567 18.0018 100.63 16.7371 100.369C14.9948 100.012 13.939 97.9866 13.8006 96.3466C13.2334 89.7485 14.2376 82.3508 13.8088 75.6687C13.9336 74.1263 15.0056 72.2992 16.5851 71.8845C17.6273 71.6107 23.6143 71.6432 24.8328 71.8086C26.5155 72.039 27.1397 73.6356 27.8399 73.7739C28.7491 73.9501 29.5877 73.5923 30.4127 73.5733C35.7212 73.4486 38.9264 74.4977 43.7545 74.9721C47.9828 75.3868 57.9322 74.0368 61.1753 75.6579C63.3764 76.7585 64.3344 79.1982 64.4619 81.5349C65.7266 81.7111 66.6684 81.1797 67.735 80.6403C74.3841 77.2789 80.7185 72.6056 87.4762 69.3499C93.7156 67.4524 97.8951 75.4736 92.5893 79.4259C84.5777 83.8499 76.7453 89.0437 68.6604 93.2915C55.4815 100.215 45.752 98.4366 31.6096 97.233C31.1021 97.1896 28.0869 96.9321 27.9485 97.0541H27.9566ZM27.9376 94.2511C36.7769 94.8258 45.391 96.3981 54.2765 95.2162C59.1399 94.571 62.9774 93.1614 67.2736 90.906C74.4737 87.1299 82.5667 82.4023 89.4873 78.1111C90.8877 77.2437 92.1795 76.7937 92.2284 74.8718C92.2826 72.7628 90.2906 71.3423 88.3203 71.9794C81.8041 75.2702 75.6027 79.7349 69.1326 83.0258C68.1746 83.5137 67.0673 84.1182 65.9926 84.2619C65.1567 84.373 63.9707 84.1562 63.2977 84.3541C62.2935 84.6495 61.6774 86.4712 59.0856 86.707C54.1571 87.157 48.5528 86.3519 43.551 86.7016C41.9931 86.7911 41.8412 84.3676 43.1601 84.1182C47.8987 83.8471 52.9955 84.4625 57.6906 84.1209C58.8956 84.0342 60.0301 83.8688 60.8171 82.8713C62.4943 80.7433 61.1021 77.9892 58.4858 77.7452C53.8178 77.306 48.4469 78.1545 43.7436 77.7587C42.2835 77.6368 40.6117 77.0431 39.1164 76.8154C35.3711 76.2434 31.7018 76.2407 27.9295 76.5579V94.2484L27.9376 94.2511ZM17.7304 74.4164C17.0737 74.5627 16.6041 75.2025 16.5879 75.8612L16.634 96.6935C16.8213 97.4309 17.3912 97.7128 18.1022 97.8104C19.158 97.9595 23.199 97.973 24.1652 97.7426C25.0662 97.5285 25.2481 97.0053 25.3458 96.1405L25.2589 75.5549C25.1015 74.8934 24.7297 74.495 24.0404 74.3865C23.1176 74.2429 18.569 74.2293 17.7277 74.4164H17.7304Z" fill="white"/>
<path d="M65.5508 34.2233C70.6314 34.413 76.7785 32.708 77.2995 39.6828C77.7039 45.1098 77.6822 53.9333 77.2995 59.3766C77.1014 62.2175 75.8611 64.443 72.8215 64.8415C61.9331 64.2126 50.1573 65.6493 39.3721 64.8415C36.2212 64.6057 34.8995 62.2771 34.6959 59.3739C34.3106 53.8683 34.3377 45.3998 34.6959 39.878C35.16 32.6836 41.1551 34.413 46.4473 34.2233V31.1411C46.4473 29.6095 47.8097 27.7174 49.2699 27.2024C51.0312 26.5816 58.4919 26.7063 60.6847 26.8581C62.3321 26.9719 63.8953 27.4301 64.7936 28.9156C65.0786 29.39 65.5508 30.6369 65.5508 31.1411V34.2233ZM49.2319 30.9432C49.0663 31.8866 49.354 33.2257 49.2319 34.2233H62.7636V30.9432C62.7636 30.1192 61.5858 29.7044 60.8828 29.6394C58.6547 29.4388 52.8658 29.3656 50.7381 29.6637C50.0759 29.7559 49.3513 30.2737 49.2319 30.9432ZM73.8392 37.6687C73.443 37.2648 72.5881 37.0018 72.0236 36.9964L39.5946 37.0208C38.1481 37.2675 37.6352 38.0997 37.4913 39.4903C37.2769 41.5614 37.3041 41.6644 38.946 42.6023C43.2313 45.0501 49.1803 48.5118 53.6013 50.4256C55.0994 51.0735 56.4103 51.1223 57.9789 50.6154L74.3006 41.8731C74.8217 41.2442 74.515 38.3599 73.8365 37.6687H73.8392ZM74.5042 44.9552L59.9113 52.7433C57.2597 53.9198 55.2053 54.1095 52.4777 52.9439L37.4886 44.958V60.3633C37.4886 61.3284 39.2554 62.3151 40.1781 62.25C50.3527 61.6862 61.3496 63.0063 71.4293 62.2609C72.4633 62.185 74.5042 61.6808 74.5042 60.3633V44.958V44.9552Z" fill="white"/>
<path d="M93.3571 34.2562C94.6788 33.9742 95.7427 35.3405 94.8064 36.5115C94.345 37.0889 90.825 39.0542 90.1275 39.0109C89.042 38.9458 88.4992 37.5769 89.2265 36.6986C89.3785 36.5142 93.1237 34.305 93.3599 34.2562H93.3571Z" fill="white"/>
<path d="M17.9339 34.2534C18.3763 34.1748 18.645 34.3266 19.0276 34.4757C19.4103 34.6248 22.4581 36.3841 22.6725 36.5982C23.7526 37.6934 22.7892 39.3388 21.1662 38.897C20.7103 38.7723 17.7412 37.0563 17.3803 36.7148C16.4711 35.8555 16.7479 34.4648 17.9339 34.2534Z" fill="white"/>
<path d="M11.9606 56.1293C12.5984 55.9829 16.2134 55.9829 16.8512 56.1293C18.257 56.4519 17.9965 58.5284 16.6531 58.8265C16.0153 58.9675 12.7965 58.9702 12.1615 58.8265C10.7068 58.5012 10.6009 56.4411 11.9633 56.1293H11.9606Z" fill="white"/>
<path d="M95.1433 56.1295C95.7621 55.9885 99.6294 55.9939 100.186 56.1755C101.456 56.5876 101.206 58.6152 99.6647 58.8592C98.97 58.9676 95.7865 58.9676 95.1867 58.7806C93.9709 58.4011 93.7972 56.4385 95.1406 56.1295H95.1433Z" fill="white"/>
<path d="M55.5445 12.5943C56.1551 12.4615 56.9558 12.5753 57.2434 13.1988C57.4768 13.7084 57.4931 17.5252 57.3493 18.1785C57.0019 19.7318 54.8172 19.6992 54.6 17.8288C54.5051 16.9993 54.4779 13.459 54.9094 12.9603C55.0668 12.7759 55.3084 12.6458 55.5445 12.5943Z" fill="white"/>
<path d="M33.8572 18.3545C34.4244 18.2407 34.9102 18.3871 35.3064 18.8127C35.5534 19.0756 37.1058 21.8027 37.2713 22.2147C37.9797 23.9875 36.6145 25.2508 35.2847 24.199C34.9048 23.8981 32.7987 20.2087 32.7716 19.7804C32.7336 19.1624 33.2275 18.482 33.8545 18.3545H33.8572Z" fill="white"/>
<path d="M77.4376 18.3548C78.5069 18.1379 79.4296 18.9891 79.1528 20.0653C79.0388 20.5044 77.0332 23.9417 76.7075 24.1992C75.4754 25.1751 74.1537 24.1206 74.5961 22.486C74.6693 22.2149 76.3818 19.187 76.599 18.924C76.8161 18.6611 77.0956 18.4225 77.4348 18.3548H77.4376Z" fill="white"/>
</g>
<defs>
<linearGradient id="paint0_linear_191_783" x1="56" y1="0" x2="56" y2="112" gradientUnits="userSpaceOnUse">
<stop stop-color="#F26322"/>
<stop offset="1" stop-color="#0663BF"/>
</linearGradient>
<clipPath id="clip0_191_783">
<rect width="90" height="88" fill="white" transform="translate(11 12.5454)"/>
</clipPath>
</defs>
</svg>
