<svg width="38" height="42" viewBox="0 0 38 42" fill="none" xmlns="http://www.w3.org/2000/svg">
<path d="M37.5995 26.8418C37.4223 26.7219 37.1974 26.6976 36.9988 26.7771L32.8851 28.4226L30.7352 23.6849C30.3672 22.882 29.5933 22.3209 28.7133 22.2203L27.0578 22.0368C27.0337 22.0329 27.0095 22.03 26.9851 22.0288L24.697 21.7752V20.2614C26.0374 19.4812 27.0655 18.2216 27.5426 16.7179H28.1337C29.3547 16.7179 30.348 15.7246 30.348 14.5036C30.348 13.9104 30.1182 13.3539 29.7008 12.9365C29.3347 12.5705 28.8614 12.3488 28.3503 12.2998C28.4255 11.8894 28.4643 11.4717 28.4643 11.0502C28.4643 8.33719 26.8949 5.985 24.617 4.85019C24.67 4.62237 24.697 4.38639 24.697 4.14345C24.697 2.40321 23.2812 0.987305 21.5408 0.987305C19.8005 0.987305 18.3848 2.40313 18.3848 4.14345C18.3848 4.3863 18.4118 4.62237 18.4647 4.85019C16.1868 5.985 14.6174 8.33719 14.6174 11.0502C14.6174 11.4717 14.6563 11.8894 14.7314 12.2998C14.2202 12.3487 13.747 12.5704 13.3809 12.9365C12.9636 13.3538 12.7338 13.9103 12.7338 14.5036C12.7338 15.7246 13.7271 16.7179 14.948 16.7179H15.5367C15.8372 17.6713 16.3636 18.5431 17.0904 19.2654C17.4818 19.6592 17.9173 19.9932 18.3848 20.2657V21.7754L16.1051 22.0287C16.0793 22.0299 16.0536 22.033 16.0281 22.0373L14.0607 22.2559C13.4085 22.3283 12.8179 22.6459 12.3977 23.1501L10.278 25.6936L7.7042 22.0903L7.1035 19.0865C7.04326 18.7852 6.77874 18.5684 6.47152 18.5684H5.84357C4.79573 18.5684 3.94323 19.4208 3.94323 20.4686V21.0799H2.80869L1.0242 20.4851C1.02282 20.4847 1.02145 20.4845 1.02007 20.484C1.00641 20.4796 0.992399 20.476 0.978391 20.4724C0.971001 20.4705 0.96361 20.4683 0.956219 20.4668C0.945563 20.4644 0.934649 20.4629 0.923735 20.4612C0.912649 20.4594 0.901649 20.4573 0.890563 20.4561C0.883173 20.4553 0.875696 20.4551 0.868306 20.4546C0.853696 20.4534 0.839087 20.4524 0.824563 20.4523C0.823188 20.4523 0.821813 20.4521 0.820352 20.4521C0.815024 20.4521 0.809954 20.4528 0.804626 20.4529C0.78993 20.4533 0.775235 20.4538 0.760712 20.4552C0.751946 20.4559 0.743438 20.4573 0.734759 20.4585C0.722899 20.4601 0.71104 20.4617 0.699352 20.4639C0.688524 20.466 0.677868 20.4686 0.667212 20.4712C0.658016 20.4735 0.648907 20.4756 0.639884 20.4783C0.627852 20.4818 0.616079 20.4859 0.604306 20.49C0.596743 20.4927 0.589181 20.4954 0.581704 20.4983C0.569673 20.5031 0.557985 20.5084 0.546298 20.5139C0.539165 20.5173 0.532032 20.5206 0.525071 20.5242C0.514071 20.5298 0.503329 20.536 0.492673 20.5423C0.485196 20.5467 0.477719 20.5511 0.470415 20.5558C0.461048 20.5619 0.452024 20.5683 0.443001 20.5749C0.434837 20.5807 0.426759 20.5866 0.418852 20.5929C0.411204 20.599 0.403813 20.6055 0.396508 20.6119C0.388001 20.6193 0.379579 20.6268 0.371415 20.6347C0.365055 20.6409 0.35904 20.6473 0.352938 20.6538C0.344688 20.6624 0.336524 20.6712 0.328704 20.6804C0.322946 20.6871 0.317618 20.6941 0.312204 20.7011C0.304985 20.7104 0.297852 20.7197 0.291063 20.7294C0.285392 20.7376 0.280149 20.7461 0.274821 20.7546C0.269235 20.7635 0.263649 20.7724 0.258493 20.7815C0.252477 20.7923 0.247063 20.8034 0.241649 20.8145C0.237954 20.822 0.234173 20.8293 0.230735 20.8371C0.224806 20.8505 0.219649 20.8643 0.214665 20.8782C0.21286 20.8832 0.210626 20.8879 0.208907 20.8929C0.208477 20.8943 0.208219 20.8957 0.20779 20.897C0.203321 20.9108 0.199712 20.9248 0.196102 20.939C0.194298 20.9463 0.192063 20.9535 0.190516 20.9609C0.188196 20.9717 0.186649 20.9827 0.184845 20.9937C0.18304 21.0047 0.181063 21.0156 0.17986 21.0266C0.179087 21.034 0.178829 21.0416 0.178313 21.0491C0.177196 21.0637 0.176165 21.0782 0.176079 21.0926C0.176079 21.094 0.175907 21.0954 0.175907 21.0968V23.4576C0.175907 24.1817 0.579469 24.8332 1.22658 25.1567L1.78543 25.4393C1.87558 25.4849 1.97518 25.5086 2.07624 25.5086H4.24986L4.93048 26.4928C5.05561 26.6737 5.2567 26.7707 5.46115 26.7707C5.58756 26.7707 5.71535 26.7336 5.82716 26.6562C6.11995 26.4538 6.19308 26.0523 5.99061 25.7595L5.11783 24.4974C4.99752 24.3234 4.79934 24.2195 4.58777 24.2195H2.2299L1.80563 24.005C1.59551 23.8999 1.46497 23.6901 1.46497 23.4575V21.9909L2.50026 22.336C2.566 22.3579 2.63475 22.3691 2.7041 22.3691H4.58777C4.94372 22.3691 5.2323 22.0805 5.2323 21.7245V20.4687C5.2323 20.1317 5.50652 19.8575 5.84357 19.8575H5.94309L6.46731 22.4788C6.48518 22.5683 6.52188 22.6528 6.57481 22.7271L9.71428 27.1224C9.83038 27.2849 10.0151 27.3844 10.2148 27.3918C10.2229 27.392 10.2309 27.3922 10.2388 27.3922C10.4297 27.3922 10.6112 27.3076 10.7339 27.1603L13.3879 23.9754C13.5938 23.7283 13.8834 23.5726 14.2031 23.5371L15.8403 23.3552L16.7954 24.6324L16.2295 24.9154C16.0442 25.008 15.9147 25.1841 15.8815 25.3886C15.8483 25.5931 15.9155 25.8011 16.062 25.9476L19.8293 29.7149C19.9501 29.8358 20.1141 29.9037 20.285 29.9037C20.456 29.9037 20.6199 29.8358 20.7408 29.7149L21.5408 28.9148L22.3409 29.7149C22.4667 29.8407 22.6317 29.9037 22.7966 29.9037C22.9615 29.9037 23.1265 29.8408 23.2524 29.7149L24.0358 28.9315V36.166C24.0358 36.4346 24.2024 36.6752 24.454 36.7694L27.8031 38.0253V39.9166H15.2783L15.2785 33.6544C15.2785 33.5149 15.2333 33.3792 15.1496 33.2677C14.2113 32.0166 14.2113 30.269 15.1496 29.018C15.153 29.0133 15.1558 29.0084 15.1591 29.0038C15.1664 28.9936 15.1735 28.9833 15.1801 28.9727C15.185 28.9649 15.1895 28.957 15.194 28.9491C15.2 28.9386 15.2058 28.928 15.2111 28.9172C15.2154 28.9085 15.2194 28.8997 15.2233 28.891C15.2278 28.8807 15.2321 28.8705 15.236 28.8602C15.2397 28.8504 15.2432 28.8405 15.2463 28.8306C15.2494 28.821 15.2524 28.8114 15.2551 28.8016C15.258 28.7908 15.2606 28.7802 15.263 28.7694C15.2651 28.76 15.267 28.7506 15.2686 28.7412C15.2705 28.7302 15.272 28.7191 15.2734 28.708C15.2745 28.6985 15.2755 28.6889 15.2762 28.6794C15.2769 28.6685 15.2774 28.6577 15.2777 28.6468C15.278 28.6367 15.278 28.6268 15.2777 28.6167C15.2774 28.6065 15.2769 28.5963 15.2762 28.586C15.2755 28.5754 15.2745 28.5647 15.2732 28.5542C15.272 28.5446 15.2707 28.5351 15.2691 28.5256C15.2673 28.5145 15.2652 28.5035 15.2628 28.4925C15.2608 28.4835 15.2585 28.4746 15.2562 28.4657C15.2533 28.4546 15.25 28.4436 15.2465 28.4326C15.2437 28.4237 15.2406 28.415 15.2373 28.4064C15.2334 28.3957 15.2291 28.3852 15.2247 28.3747C15.2208 28.3657 15.2166 28.3569 15.2122 28.348C15.2075 28.3384 15.2027 28.3288 15.1974 28.3195C15.1922 28.3099 15.1866 28.3006 15.1809 28.2914C15.1757 28.283 15.1704 28.2748 15.1648 28.2667C15.158 28.2568 15.1508 28.2472 15.1434 28.2377C15.1378 28.2304 15.1322 28.2233 15.1263 28.2163C15.1182 28.2066 15.1097 28.1974 15.1009 28.1882C15.0971 28.184 15.0936 28.1796 15.0896 28.1756C15.0868 28.1729 15.0838 28.1706 15.0811 28.1679C15.0728 28.16 15.0642 28.1523 15.0556 28.1448C15.047 28.1375 15.0385 28.1301 15.0296 28.1233C15.0265 28.1209 15.0238 28.1181 15.0206 28.1158C15.0159 28.1123 15.011 28.1095 15.0062 28.1062C14.9961 28.099 14.9859 28.092 14.9755 28.0855C14.9675 28.0805 14.9594 28.0757 14.9513 28.0712C14.941 28.0654 14.9307 28.0597 14.9201 28.0545C14.9111 28.0501 14.902 28.0459 14.8929 28.0419C14.8831 28.0376 14.8732 28.0335 14.8632 28.0296C14.853 28.0257 14.8428 28.0222 14.8325 28.0189C14.8232 28.0159 14.814 28.013 14.8046 28.0104C14.7935 28.0074 14.7824 28.0047 14.7713 28.0023C14.7623 28.0003 14.7533 27.9985 14.7442 27.9969C14.7328 27.995 14.7214 27.9933 14.7099 27.992C14.7007 27.9909 14.6915 27.9901 14.6823 27.9894C14.6712 27.9885 14.66 27.988 14.6488 27.9878C14.6391 27.9875 14.6294 27.9875 14.6196 27.9878C14.6091 27.988 14.5986 27.9885 14.5881 27.9893C14.5777 27.9901 14.5673 27.991 14.5569 27.9922C14.5472 27.9934 14.5375 27.9948 14.5279 27.9964C14.5169 27.9982 14.506 28.0004 14.495 28.0027C14.486 28.0047 14.4769 28.0069 14.468 28.0093C14.4569 28.0122 14.4458 28.0155 14.4349 28.019C14.4261 28.0219 14.4175 28.025 14.4088 28.0281C14.3981 28.0321 14.3876 28.0363 14.3771 28.0409C14.3681 28.0447 14.3593 28.0489 14.3505 28.0532C14.3408 28.058 14.3313 28.0629 14.3218 28.0681C14.3124 28.0733 14.3032 28.0788 14.294 28.0846C14.2856 28.0898 14.2772 28.0952 14.2691 28.1008C14.2593 28.1075 14.2497 28.1146 14.2403 28.1219C14.233 28.1276 14.2257 28.1332 14.2185 28.1393C14.2091 28.1473 14.1999 28.1558 14.1909 28.1644C14.1867 28.1683 14.1823 28.1717 14.1781 28.1759L11.3778 30.9762C11.119 31.235 10.7607 31.3646 10.3948 31.3319C10.0257 31.299 9.69263 31.1053 9.48122 30.801L9.2112 30.4117C9.00839 30.1192 8.6068 30.0465 8.31427 30.2494C8.02174 30.4522 7.94904 30.8538 8.15194 31.1463L8.4223 31.5361C8.8525 32.1553 9.52969 32.5489 10.2803 32.6158C10.3561 32.6226 10.4319 32.626 10.5072 32.626C11.1742 32.626 11.8137 32.3634 12.2894 31.8877L13.1605 31.0165C13.1349 32.0099 13.411 33.0098 13.9895 33.8609L13.9893 40.5614C13.9893 40.7324 14.0572 40.8963 14.1781 41.0172C14.299 41.1381 14.4629 41.206 14.6339 41.206H28.4477C28.8037 41.206 29.0922 40.9174 29.0922 40.5614V38.509L29.4772 38.6534C29.4821 38.6552 29.487 38.6565 29.492 38.6582C29.5026 38.6619 29.5133 38.6654 29.5241 38.6686C29.5334 38.6712 29.5426 38.6735 29.552 38.6758C29.5621 38.6782 29.572 38.6807 29.5823 38.6827C29.5938 38.6849 29.6054 38.6864 29.617 38.688C29.6253 38.6891 29.6336 38.6906 29.6421 38.6914C29.6625 38.6933 29.683 38.6944 29.7034 38.6944H32.2129C32.2137 38.6944 32.2144 38.6946 32.2151 38.6946C32.2359 38.6946 32.2568 38.6933 32.2777 38.6913C32.2805 38.691 32.2834 38.6906 32.2862 38.6903C32.2915 38.6897 32.2967 38.6888 32.302 38.6881C32.3135 38.6865 32.325 38.6849 32.3365 38.6827C32.3427 38.6815 32.3489 38.6801 32.3551 38.6788C32.3611 38.6774 32.3671 38.6761 32.373 38.6745C32.3799 38.6728 32.3867 38.6709 32.3935 38.6689C32.403 38.6662 32.4124 38.6632 32.4216 38.6601C32.427 38.6583 32.4324 38.6567 32.4377 38.6547C32.438 38.6547 32.4384 38.6546 32.4387 38.6544L33.0696 38.421L37.4649 36.7697C37.7162 36.6753 37.8827 36.4349 37.8827 36.1663V27.3758C37.8827 27.1619 37.7767 26.962 37.5995 26.8421L37.5995 26.8418ZM36.5936 29.4404L32.0981 31.1262H31.6051C31.6192 30.6315 31.9207 30.1966 32.3826 30.0118L32.7361 29.8705C32.7644 29.862 32.7926 29.8524 32.8203 29.8398C32.8293 29.8357 32.8377 29.8308 32.8465 29.8263L36.5935 28.3275V29.4404L36.5936 29.4404ZM29.8203 31.1262L25.3248 29.4404V28.3275L29.5358 30.0119C29.9977 30.1967 30.2992 30.6316 30.3133 31.1263H29.8203V31.1262ZM30.348 32.4153H31.5705V34.8935H30.9592C30.7454 34.8935 30.5399 34.9295 30.348 34.9949V32.4152V32.4153ZM21.5408 26.4165L20.3213 23.6726C20.7206 23.7755 21.1306 23.8279 21.5408 23.8279C21.9511 23.8279 22.3611 23.7755 22.7604 23.6725L21.5408 26.4165ZM29.0589 14.5037C29.0589 15.0139 28.6438 15.4289 28.1337 15.4289H27.8063C27.8258 15.2278 27.8364 15.024 27.8364 14.8177V13.5786H28.1337C28.379 13.5786 28.618 13.6769 28.7893 13.8481C28.9607 14.0195 29.0589 14.2585 29.0589 14.5038V14.5037ZM19.6738 4.14353C19.6738 3.11409 20.5114 2.27645 21.5408 2.27645C22.5703 2.27645 23.4079 3.114 23.4079 4.14353C23.4079 4.22414 23.4024 4.30303 23.3927 4.38038C22.8028 4.21641 22.1824 4.12686 21.5409 4.12686C20.8995 4.12686 20.279 4.21641 19.6891 4.38038C19.6793 4.30303 19.6739 4.22414 19.6739 4.14353H19.6738ZM21.5408 5.41592C24.6476 5.41592 27.1752 7.94352 27.1752 11.0503C27.1752 11.47 27.1292 11.885 27.038 12.2895H25.3082C24.3593 12.2895 23.4269 12.138 22.537 11.8395C21.6255 11.5336 20.7871 11.0949 20.0452 10.5357C20.02 10.5167 19.9932 10.5004 19.9659 10.4855C19.9601 10.4823 19.9544 10.4792 19.9486 10.4762C19.9214 10.4623 19.8935 10.4503 19.8648 10.4405C19.8606 10.4391 19.8563 10.438 19.8521 10.4367C19.8253 10.4282 19.7981 10.4216 19.7705 10.4166C19.7655 10.4158 19.7606 10.4146 19.7556 10.4138C19.7257 10.4091 19.6953 10.4068 19.6648 10.4065C19.6622 10.4065 19.6597 10.4059 19.6572 10.4059C19.6536 10.4059 19.6502 10.4067 19.6467 10.4067C19.6143 10.4073 19.5819 10.4094 19.5496 10.4149C19.3748 10.4445 19.2199 10.5448 19.1213 10.6922C18.4528 11.6925 17.3363 12.2895 16.1348 12.2895H16.0438C15.9525 11.8851 15.9065 11.47 15.9065 11.0504C15.9065 7.9436 18.4341 5.41592 21.5408 5.41592ZM14.948 15.4289C14.4378 15.4289 14.0228 15.0139 14.0228 14.5037C14.0228 14.2584 14.1211 14.0194 14.2923 13.8481C14.4637 13.6768 14.7026 13.5785 14.948 13.5785H15.2452V14.8177C15.2452 15.0231 15.2554 15.2271 15.2746 15.4288H14.9479L14.948 15.4289ZM16.5343 14.8177V13.5623C16.5571 13.5604 16.5796 13.5572 16.6023 13.5551C16.6383 13.5516 16.674 13.5479 16.7098 13.5437C16.7574 13.5381 16.8047 13.5316 16.852 13.5246C16.8869 13.5194 16.9218 13.5142 16.9564 13.5084C17.0047 13.5001 17.0526 13.4908 17.1005 13.4812C17.1336 13.4745 17.1667 13.4682 17.1995 13.4609C17.2502 13.4496 17.3004 13.4368 17.3505 13.4239C17.38 13.4164 17.4096 13.4095 17.4389 13.4014C17.4989 13.3848 17.5583 13.3664 17.6175 13.3475C17.6363 13.3416 17.6553 13.3364 17.6739 13.3302C17.7516 13.3045 17.8286 13.2767 17.9047 13.2471C17.9237 13.2397 17.9423 13.2312 17.9611 13.2237C18.0179 13.2007 18.0746 13.1775 18.1305 13.1524C18.158 13.1401 18.185 13.1266 18.2122 13.1138C18.2589 13.0919 18.3054 13.0698 18.3513 13.0464C18.3808 13.0314 18.4098 13.0154 18.439 12.9997C18.4819 12.9768 18.5245 12.9536 18.5667 12.9294C18.5965 12.9122 18.626 12.8944 18.6554 12.8766C18.696 12.8521 18.7363 12.8271 18.7763 12.8014C18.8057 12.7825 18.8347 12.7631 18.8637 12.7436C18.9029 12.7172 18.9416 12.6901 18.9801 12.6624C19.0084 12.6421 19.0366 12.6217 19.0645 12.6007C19.1029 12.5719 19.1406 12.5423 19.1781 12.5123C19.2047 12.491 19.2315 12.4698 19.2577 12.4479C19.2961 12.416 19.3335 12.383 19.3709 12.3497C19.3951 12.3282 19.4195 12.3073 19.4434 12.2852C19.4838 12.2479 19.5232 12.2091 19.5625 12.1703C19.5819 12.1511 19.6017 12.1326 19.6208 12.113C19.6786 12.054 19.7351 11.9936 19.79 11.9314C20.5072 12.4019 21.2908 12.7809 22.1268 13.0614C23.1492 13.4045 24.2195 13.5784 25.3081 13.5784H26.5472V14.8176C26.5472 17.5781 24.3013 19.824 21.5407 19.824C20.7876 19.824 20.061 19.6593 19.4015 19.3466C19.3493 19.3095 19.2915 19.28 19.2295 19.2597C18.7822 19.0256 18.3682 18.7225 18.0018 18.3538C17.0554 17.4132 16.5343 16.1574 16.5343 14.8176V14.8177ZM21.5407 21.1133C22.1905 21.1133 22.8176 21.0143 23.4078 20.8306V22.0123C22.2705 22.7163 20.811 22.7162 19.6738 22.0123V20.8328C20.2701 21.0171 20.8977 21.1133 21.5407 21.1133ZM20.2849 28.3477L17.6057 25.6685L18.0616 25.4405C18.2325 25.3551 18.3566 25.1984 18.4006 25.0125C18.4446 24.8267 18.4039 24.6309 18.2896 24.478L17.3264 23.1901L18.6317 23.0451L20.7719 27.8606L20.2849 28.3477L20.2849 28.3477ZM22.7965 28.3477L22.3095 27.8607L24.4498 23.045L25.7588 23.19L24.7926 24.477C24.6779 24.6299 24.6369 24.8259 24.6807 25.012C24.7246 25.198 24.8488 25.3551 25.0198 25.4405L25.4758 25.6685L22.7965 28.3477ZM27.2002 25.3887C27.167 25.1841 27.0375 25.008 26.8522 24.9154L26.2875 24.633L27.2471 23.3549L28.5691 23.5014C29.0013 23.5508 29.3822 23.8269 29.5624 24.2199L31.6919 28.9125C31.4104 29.056 31.1634 29.2468 30.9593 29.474C30.7053 29.1913 30.3854 28.9634 30.0146 28.8151L25.8273 27.1401L27.0198 25.9477C27.1663 25.8012 27.2334 25.5932 27.2002 25.3887L27.2002 25.3887ZM25.3248 30.8172L29.0589 32.2174V37.1196L25.3248 35.7194V30.8172ZM30.348 36.7939C30.348 36.4569 30.6222 36.1827 30.9592 36.1827H31.5871C31.6927 36.1827 31.8 36.2115 31.8903 36.2644C32.0832 36.377 32.1984 36.5749 32.1984 36.7939V37.3687L32.0996 37.4052H30.348V36.7939ZM36.5936 35.7197L33.4873 36.8867V36.7939C33.4873 36.2446 33.2576 35.7399 32.8595 35.3836V32.2174L36.5936 30.8172V35.7197Z" fill="#ed7330"/>
</svg>
