<svg width="16" height="16" viewBox="0 0 16 16" fill="none" xmlns="http://www.w3.org/2000/svg">
<path d="M13.7466 8.71334C13.4933 8.71334 13.2799 8.52001 13.2466 8.26667C13.0866 6.76001 12.2733 5.39334 11.0199 4.52667C10.7933 4.36667 10.7399 4.06001 10.8933 3.83334C11.0533 3.60667 11.3666 3.55334 11.5866 3.70667C13.0799 4.74001 14.0399 6.36667 14.2333 8.16001C14.2599 8.43334 14.0666 8.68001 13.7866 8.71334C13.7799 8.71334 13.7599 8.71334 13.7466 8.71334Z" fill="#B0B0B0"/>
<path d="M2.3266 8.74668C2.3066 8.74668 2.29327 8.74668 2.27327 8.74668C1.99994 8.71334 1.79994 8.46668 1.8266 8.19334C2.0066 6.40001 2.95994 4.78001 4.43327 3.73334C4.65994 3.57334 4.97327 3.62668 5.13327 3.85334C5.29327 4.08001 5.23994 4.39334 5.01327 4.55334C3.77327 5.42668 2.97327 6.79334 2.81994 8.30001C2.79994 8.55334 2.57994 8.74668 2.3266 8.74668Z" fill="#B0B0B0"/>
<path d="M8.04014 15.0734C7.05347 15.0734 6.11347 14.8467 5.23347 14.4067C4.98681 14.28 4.88681 13.98 5.01347 13.7334C5.14014 13.4867 5.44014 13.3867 5.68681 13.5134C7.12681 14.24 8.86014 14.2534 10.3135 13.5534C10.5601 13.4334 10.8601 13.54 10.9801 13.7867C11.1001 14.0334 10.9935 14.3334 10.7468 14.4534C9.89347 14.8667 8.98681 15.0734 8.04014 15.0734Z" fill="#B0B0B0"/>
<path d="M8.03986 5.62665C6.73986 5.62665 5.68652 4.57332 5.68652 3.27332C5.68652 1.97332 6.73986 0.919983 8.03986 0.919983C9.33986 0.919983 10.3932 1.97332 10.3932 3.27332C10.3932 4.57332 9.33319 5.62665 8.03986 5.62665ZM8.03986 1.92665C7.29319 1.92665 6.68652 2.53332 6.68652 3.27998C6.68652 4.02665 7.29319 4.63332 8.03986 4.63332C8.78652 4.63332 9.39319 4.02665 9.39319 3.27998C9.39319 2.53332 8.77986 1.92665 8.03986 1.92665Z" fill="#B0B0B0"/>
<path d="M3.22003 13.78C1.92003 13.78 0.866699 12.7266 0.866699 11.4266C0.866699 10.1333 1.92003 9.0733 3.22003 9.0733C4.52003 9.0733 5.57337 10.1266 5.57337 11.4266C5.57337 12.72 4.52003 13.78 3.22003 13.78ZM3.22003 10.0733C2.47337 10.0733 1.8667 10.68 1.8667 11.4266C1.8667 12.1733 2.47337 12.78 3.22003 12.78C3.9667 12.78 4.57337 12.1733 4.57337 11.4266C4.57337 10.68 3.9667 10.0733 3.22003 10.0733Z" fill="#B0B0B0"/>
<path d="M12.7801 13.78C11.4801 13.78 10.4268 12.7266 10.4268 11.4266C10.4268 10.1333 11.4801 9.0733 12.7801 9.0733C14.0801 9.0733 15.1334 10.1266 15.1334 11.4266C15.1268 12.72 14.0734 13.78 12.7801 13.78ZM12.7801 10.0733C12.0334 10.0733 11.4268 10.68 11.4268 11.4266C11.4268 12.1733 12.0334 12.78 12.7801 12.78C13.5268 12.78 14.1334 12.1733 14.1334 11.4266C14.1268 10.68 13.5268 10.0733 12.7801 10.0733Z" fill="#B0B0B0"/>
</svg>
